<?xml version="1.0" encoding="ISO8859-1"?>
<svg xmlns="http://www.w3.org/2000/svg" xmlns:xlink="http://www.w3.org/1999/xlink" width="288px" height="252px" viewBox="0 0 288 252" version="1.1" id="Fig:dens">
  <metadata xmlns:gridsvg="http://www.stat.auckland.ac.nz/~paul/R/gridSVG/">
    <gridsvg:generator name="gridSVG" version="1.7-1" time="2020-04-26 20:47:51"/>
    <gridsvg:argument name="name" value="./results/QCDir.Norm/dens.svg"/>
    <gridsvg:argument name="exportCoords" value="none"/>
    <gridsvg:argument name="exportMappings" value="none"/>
    <gridsvg:argument name="exportJS" value="none"/>
    <gridsvg:argument name="res" value="72"/>
    <gridsvg:argument name="prefix" value="Fig:dens"/>
    <gridsvg:argument name="addClasses" value="FALSE"/>
    <gridsvg:argument name="indent" value="TRUE"/>
    <gridsvg:argument name="htmlWrapper" value="FALSE"/>
    <gridsvg:argument name="usePaths" value="none"/>
    <gridsvg:argument name="uniqueNames" value="TRUE"/>
    <gridsvg:separator name="id.sep" value="."/>
    <gridsvg:separator name="gPath.sep" value="::"/>
    <gridsvg:separator name="vpPath.sep" value="::"/>
  </metadata>
  <g transform="translate(0, 252) scale(1, -1)">
    <g id="Fig:densgridSVG" fill="none" stroke="rgb(0,0,0)" stroke-dasharray="none" stroke-width="0.75" font-size="12" font-family="Helvetica, Arial, FreeSans, Liberation Sans, Nimbus Sans L, sans-serif" opacity="1" stroke-linecap="round" stroke-linejoin="round" stroke-miterlimit="10" stroke-opacity="1" fill-opacity="0" font-weight="normal" font-style="normal">
      <g id="Fig:densplot_01.background.1">
        <rect id="Fig:densplot_01.background.1.1" x="0" y="0" width="288" height="252" transform="" fill="none" stroke="none" stroke-opacity="0" fill-opacity="0"/>
      </g>
      <g id="Fig:densplot_01.toplevel.vp.1" font-size="12">
        <g id="Fig:densplot_01.ylab.vp.1">
          <g id="Fig:densplot_01.ylab.1">
            <g id="Fig:densplot_01.ylab.1.1" transform="translate(10.31, 138.09)" stroke-width="0.1">
              <g id="Fig:densplot_01.ylab.1.1.scale" transform="scale(1, -1)">
                <text x="0" y="0" id="Fig:densplot_01.ylab.1.1.text" transform="rotate(-90)" text-anchor="middle" opacity="1" stroke="rgb(0,0,0)" fill="rgb(0,0,0)" stroke-opacity="1" fill-opacity="1" font-size="12" font-weight="normal" font-style="normal">
                  <tspan id="Fig:densplot_01.ylab.1.1.tspan.1" dy="4.31" x="0">Density</tspan>
                </text>
              </g>
            </g>
          </g>
        </g>
        <g id="Fig:densplot_01.figure.vp.1"/>
        <defs>
          <clipPath id="Fig:densplot_01.panel.1.1.vp.1.clipPath">
            <rect x="44.8" y="42.19" width="231.2" height="191.81" fill="none" stroke="none"/>
          </clipPath>
        </defs>
        <g id="Fig:densplot_01.panel.1.1.vp.1" clip-path="url(#Fig:densplot_01.panel.1.1.vp.1.clipPath)"/>
        <g id="Fig:densplot_01.strip.1.1.off.vp.1"/>
        <g id="Fig:densplot_01.strip.left.1.1.off.vp.1">
          <g id="Fig:densplot_01.ticks.left.panel.1.1.1">
            <polyline id="Fig:densplot_01.ticks.left.panel.1.1.1.1" points="44.8,53.95 39.13,53.95" stroke="rgb(0,0,0)" opacity="1" stroke-dasharray="none" stroke-width="0.75" stroke-opacity="1" fill="none"/>
            <polyline id="Fig:densplot_01.ticks.left.panel.1.1.1.2" points="44.8,93.19 39.13,93.19" stroke="rgb(0,0,0)" opacity="1" stroke-dasharray="none" stroke-width="0.75" stroke-opacity="1" fill="none"/>
            <polyline id="Fig:densplot_01.ticks.left.panel.1.1.1.3" points="44.8,132.44 39.13,132.44" stroke="rgb(0,0,0)" opacity="1" stroke-dasharray="none" stroke-width="0.75" stroke-opacity="1" fill="none"/>
            <polyline id="Fig:densplot_01.ticks.left.panel.1.1.1.4" points="44.8,171.68 39.13,171.68" stroke="rgb(0,0,0)" opacity="1" stroke-dasharray="none" stroke-width="0.75" stroke-opacity="1" fill="none"/>
            <polyline id="Fig:densplot_01.ticks.left.panel.1.1.1.5" points="44.8,210.93 39.13,210.93" stroke="rgb(0,0,0)" opacity="1" stroke-dasharray="none" stroke-width="0.75" stroke-opacity="1" fill="none"/>
          </g>
          <g id="Fig:densplot_01.ticklabels.left.panel.1.1.1">
            <g id="Fig:densplot_01.ticklabels.left.panel.1.1.1.1" transform="translate(33.47, 53.95)" stroke-width="0.1">
              <g id="Fig:densplot_01.ticklabels.left.panel.1.1.1.1.scale" transform="scale(1, -1)">
                <text x="0" y="0" id="Fig:densplot_01.ticklabels.left.panel.1.1.1.1.text" transform="rotate(-90)" text-anchor="middle" stroke="rgb(0,0,0)" opacity="1" fill="rgb(0,0,0)" stroke-opacity="1" fill-opacity="1" font-size="9.6" font-weight="normal" font-style="normal">
                  <tspan id="Fig:densplot_01.ticklabels.left.panel.1.1.1.1.tspan.1" dy="0" x="0">0.00</tspan>
                </text>
              </g>
            </g>
            <g id="Fig:densplot_01.ticklabels.left.panel.1.1.1.2" transform="translate(33.47, 93.19)" stroke-width="0.1">
              <g id="Fig:densplot_01.ticklabels.left.panel.1.1.1.2.scale" transform="scale(1, -1)">
                <text x="0" y="0" id="Fig:densplot_01.ticklabels.left.panel.1.1.1.2.text" transform="rotate(-90)" text-anchor="middle" stroke="rgb(0,0,0)" opacity="1" fill="rgb(0,0,0)" stroke-opacity="1" fill-opacity="1" font-size="9.6" font-weight="normal" font-style="normal">
                  <tspan id="Fig:densplot_01.ticklabels.left.panel.1.1.1.2.tspan.1" dy="0" x="0">0.05</tspan>
                </text>
              </g>
            </g>
            <g id="Fig:densplot_01.ticklabels.left.panel.1.1.1.3" transform="translate(33.47, 132.44)" stroke-width="0.1">
              <g id="Fig:densplot_01.ticklabels.left.panel.1.1.1.3.scale" transform="scale(1, -1)">
                <text x="0" y="0" id="Fig:densplot_01.ticklabels.left.panel.1.1.1.3.text" transform="rotate(-90)" text-anchor="middle" stroke="rgb(0,0,0)" opacity="1" fill="rgb(0,0,0)" stroke-opacity="1" fill-opacity="1" font-size="9.6" font-weight="normal" font-style="normal">
                  <tspan id="Fig:densplot_01.ticklabels.left.panel.1.1.1.3.tspan.1" dy="0" x="0">0.10</tspan>
                </text>
              </g>
            </g>
            <g id="Fig:densplot_01.ticklabels.left.panel.1.1.1.4" transform="translate(33.47, 171.68)" stroke-width="0.1">
              <g id="Fig:densplot_01.ticklabels.left.panel.1.1.1.4.scale" transform="scale(1, -1)">
                <text x="0" y="0" id="Fig:densplot_01.ticklabels.left.panel.1.1.1.4.text" transform="rotate(-90)" text-anchor="middle" stroke="rgb(0,0,0)" opacity="1" fill="rgb(0,0,0)" stroke-opacity="1" fill-opacity="1" font-size="9.6" font-weight="normal" font-style="normal">
                  <tspan id="Fig:densplot_01.ticklabels.left.panel.1.1.1.4.tspan.1" dy="0" x="0">0.15</tspan>
                </text>
              </g>
            </g>
            <g id="Fig:densplot_01.ticklabels.left.panel.1.1.1.5" transform="translate(33.47, 210.93)" stroke-width="0.1">
              <g id="Fig:densplot_01.ticklabels.left.panel.1.1.1.5.scale" transform="scale(1, -1)">
                <text x="0" y="0" id="Fig:densplot_01.ticklabels.left.panel.1.1.1.5.text" transform="rotate(-90)" text-anchor="middle" stroke="rgb(0,0,0)" opacity="1" fill="rgb(0,0,0)" stroke-opacity="1" fill-opacity="1" font-size="9.6" font-weight="normal" font-style="normal">
                  <tspan id="Fig:densplot_01.ticklabels.left.panel.1.1.1.5.tspan.1" dy="0" x="0">0.20</tspan>
                </text>
              </g>
            </g>
          </g>
        </g>
        <g id="Fig:densplot_01.panel.1.1.off.vp.1">
          <g id="Fig:densplot_01.ticks.bottom.panel.1.1.1">
            <polyline id="Fig:densplot_01.ticks.bottom.panel.1.1.1.1" points="72.46,42.19 72.46,36.52" stroke="rgb(0,0,0)" opacity="1" stroke-dasharray="none" stroke-width="0.75" stroke-opacity="1" fill="none"/>
            <polyline id="Fig:densplot_01.ticks.bottom.panel.1.1.1.2" points="111.25,42.19 111.25,36.52" stroke="rgb(0,0,0)" opacity="1" stroke-dasharray="none" stroke-width="0.75" stroke-opacity="1" fill="none"/>
            <polyline id="Fig:densplot_01.ticks.bottom.panel.1.1.1.3" points="150.04,42.19 150.04,36.52" stroke="rgb(0,0,0)" opacity="1" stroke-dasharray="none" stroke-width="0.75" stroke-opacity="1" fill="none"/>
            <polyline id="Fig:densplot_01.ticks.bottom.panel.1.1.1.4" points="188.83,42.19 188.83,36.52" stroke="rgb(0,0,0)" opacity="1" stroke-dasharray="none" stroke-width="0.75" stroke-opacity="1" fill="none"/>
            <polyline id="Fig:densplot_01.ticks.bottom.panel.1.1.1.5" points="227.62,42.19 227.62,36.52" stroke="rgb(0,0,0)" opacity="1" stroke-dasharray="none" stroke-width="0.75" stroke-opacity="1" fill="none"/>
            <polyline id="Fig:densplot_01.ticks.bottom.panel.1.1.1.6" points="266.41,42.19 266.41,36.52" stroke="rgb(0,0,0)" opacity="1" stroke-dasharray="none" stroke-width="0.75" stroke-opacity="1" fill="none"/>
          </g>
          <g id="Fig:densplot_01.ticklabels.bottom.panel.1.1.1">
            <g id="Fig:densplot_01.ticklabels.bottom.panel.1.1.1.1" transform="translate(72.46, 30.85)" stroke-width="0.1">
              <g id="Fig:densplot_01.ticklabels.bottom.panel.1.1.1.1.scale" transform="scale(1, -1)">
                <text x="0" y="0" id="Fig:densplot_01.ticklabels.bottom.panel.1.1.1.1.text" text-anchor="middle" stroke="rgb(0,0,0)" opacity="1" fill="rgb(0,0,0)" stroke-opacity="1" fill-opacity="1" font-size="9.6" font-weight="normal" font-style="normal">
                  <tspan id="Fig:densplot_01.ticklabels.bottom.panel.1.1.1.1.tspan.1" dy="7.18" x="0">4</tspan>
                </text>
              </g>
            </g>
            <g id="Fig:densplot_01.ticklabels.bottom.panel.1.1.1.2" transform="translate(111.25, 30.85)" stroke-width="0.1">
              <g id="Fig:densplot_01.ticklabels.bottom.panel.1.1.1.2.scale" transform="scale(1, -1)">
                <text x="0" y="0" id="Fig:densplot_01.ticklabels.bottom.panel.1.1.1.2.text" text-anchor="middle" stroke="rgb(0,0,0)" opacity="1" fill="rgb(0,0,0)" stroke-opacity="1" fill-opacity="1" font-size="9.6" font-weight="normal" font-style="normal">
                  <tspan id="Fig:densplot_01.ticklabels.bottom.panel.1.1.1.2.tspan.1" dy="7.18" x="0">6</tspan>
                </text>
              </g>
            </g>
            <g id="Fig:densplot_01.ticklabels.bottom.panel.1.1.1.3" transform="translate(150.04, 30.85)" stroke-width="0.1">
              <g id="Fig:densplot_01.ticklabels.bottom.panel.1.1.1.3.scale" transform="scale(1, -1)">
                <text x="0" y="0" id="Fig:densplot_01.ticklabels.bottom.panel.1.1.1.3.text" text-anchor="middle" stroke="rgb(0,0,0)" opacity="1" fill="rgb(0,0,0)" stroke-opacity="1" fill-opacity="1" font-size="9.6" font-weight="normal" font-style="normal">
                  <tspan id="Fig:densplot_01.ticklabels.bottom.panel.1.1.1.3.tspan.1" dy="7.18" x="0">8</tspan>
                </text>
              </g>
            </g>
            <g id="Fig:densplot_01.ticklabels.bottom.panel.1.1.1.4" transform="translate(188.83, 30.85)" stroke-width="0.1">
              <g id="Fig:densplot_01.ticklabels.bottom.panel.1.1.1.4.scale" transform="scale(1, -1)">
                <text x="0" y="0" id="Fig:densplot_01.ticklabels.bottom.panel.1.1.1.4.text" text-anchor="middle" stroke="rgb(0,0,0)" opacity="1" fill="rgb(0,0,0)" stroke-opacity="1" fill-opacity="1" font-size="9.6" font-weight="normal" font-style="normal">
                  <tspan id="Fig:densplot_01.ticklabels.bottom.panel.1.1.1.4.tspan.1" dy="7.18" x="0">10</tspan>
                </text>
              </g>
            </g>
            <g id="Fig:densplot_01.ticklabels.bottom.panel.1.1.1.5" transform="translate(227.62, 30.85)" stroke-width="0.1">
              <g id="Fig:densplot_01.ticklabels.bottom.panel.1.1.1.5.scale" transform="scale(1, -1)">
                <text x="0" y="0" id="Fig:densplot_01.ticklabels.bottom.panel.1.1.1.5.text" text-anchor="middle" stroke="rgb(0,0,0)" opacity="1" fill="rgb(0,0,0)" stroke-opacity="1" fill-opacity="1" font-size="9.6" font-weight="normal" font-style="normal">
                  <tspan id="Fig:densplot_01.ticklabels.bottom.panel.1.1.1.5.tspan.1" dy="7.18" x="0">12</tspan>
                </text>
              </g>
            </g>
            <g id="Fig:densplot_01.ticklabels.bottom.panel.1.1.1.6" transform="translate(266.41, 30.85)" stroke-width="0.1">
              <g id="Fig:densplot_01.ticklabels.bottom.panel.1.1.1.6.scale" transform="scale(1, -1)">
                <text x="0" y="0" id="Fig:densplot_01.ticklabels.bottom.panel.1.1.1.6.text" text-anchor="middle" stroke="rgb(0,0,0)" opacity="1" fill="rgb(0,0,0)" stroke-opacity="1" fill-opacity="1" font-size="9.6" font-weight="normal" font-style="normal">
                  <tspan id="Fig:densplot_01.ticklabels.bottom.panel.1.1.1.6.tspan.1" dy="7.18" x="0">14</tspan>
                </text>
              </g>
            </g>
          </g>
        </g>
        <defs>
          <clipPath id="Fig:densplot_01.panel.1.1.vp.2.clipPath">
            <rect x="44.8" y="42.19" width="231.2" height="191.81" fill="none" stroke="none"/>
          </clipPath>
        </defs>
        <g id="Fig:densplot_01.panel.1.1.vp.2" clip-path="url(#Fig:densplot_01.panel.1.1.vp.2.clipPath)">
          <g id="Fig:densplot_01.xyplot.lines.group.1.panel.1.1.1">
            <polyline id="Fig:densplot_01.xyplot.lines.group.1.panel.1.1.1.1" points="59.06,53.97 59.46,53.98 59.86,53.99 60.25,54.01 60.65,54.03 61.05,54.05 61.44,54.09 61.84,54.13 62.24,54.18 62.63,54.25 63.03,54.33 63.43,54.44 63.82,54.56 64.22,54.72 64.62,54.91 65.01,55.14 65.41,55.42 65.81,55.74 66.2,56.13 66.6,56.59 67,57.13 67.39,57.76 67.79,58.48 68.19,59.3 68.58,60.24 68.98,61.31 69.38,62.53 69.77,63.9 70.17,65.42 70.57,67.1 70.96,68.95 71.36,70.97 71.76,73.2 72.15,75.63 72.55,78.25 72.95,81.05 73.34,84.04 73.74,87.21 74.14,90.57 74.53,94.13 74.93,97.85 75.33,101.72 75.72,105.74 76.12,109.88 76.52,114.14 76.91,118.51 77.31,122.96 77.71,127.47 78.11,132.02 78.5,136.6 78.9,141.19 79.3,145.76 79.69,150.29 80.09,154.77 80.49,159.18 80.88,163.51 81.28,167.74 81.68,171.86 82.07,175.85 82.47,179.68 82.87,183.37 83.26,186.9 83.66,190.27 84.06,193.48 84.45,196.52 84.85,199.36 85.25,202.02 85.64,204.51 86.04,206.83 86.44,208.97 86.83,210.95 87.23,212.75 87.63,214.36 88.02,215.81 88.42,217.1 88.82,218.25 89.21,219.24 89.61,220.08 90.01,220.77 90.4,221.32 90.8,221.73 91.2,222.01 91.59,222.17 91.99,222.22 92.39,222.16 92.78,221.97 93.18,221.68 93.58,221.3 93.97,220.84 94.37,220.29 94.77,219.68 95.16,218.99 95.56,218.24 95.96,217.44 96.35,216.6 96.75,215.72 97.15,214.82 97.54,213.89 97.94,212.94 98.34,211.98 98.73,211.02 99.13,210.05 99.53,209.09 99.92,208.14 100.32,207.2 100.72,206.28 101.11,205.37 101.51,204.48 101.91,203.6 102.3,202.75 102.7,201.91 103.1,201.1 103.49,200.3 103.89,199.53 104.29,198.76 104.68,198.02 105.08,197.28 105.48,196.56 105.87,195.85 106.27,195.15 106.67,194.46 107.07,193.78 107.46,193.1 107.86,192.43 108.26,191.76 108.65,191.09 109.05,190.43 109.45,189.77 109.84,189.1 110.24,188.44 110.64,187.78 111.03,187.12 111.43,186.46 111.83,185.8 112.22,185.14 112.62,184.48 113.02,183.81 113.41,183.15 113.81,182.48 114.21,181.81 114.6,181.15 115,180.48 115.4,179.82 115.79,179.15 116.19,178.49 116.59,177.83 116.98,177.18 117.38,176.54 117.78,175.89 118.17,175.26 118.57,174.63 118.97,174.02 119.36,173.41 119.76,172.8 120.16,172.21 120.55,171.62 120.95,171.04 121.35,170.46 121.74,169.89 122.14,169.33 122.54,168.76 122.93,168.2 123.33,167.64 123.73,167.07 124.12,166.51 124.52,165.94 124.92,165.37 125.31,164.8 125.71,164.22 126.11,163.64 126.5,163.06 126.9,162.47 127.3,161.88 127.69,161.29 128.09,160.71 128.49,160.12 128.88,159.53 129.28,158.95 129.68,158.38 130.07,157.81 130.47,157.24 130.87,156.69 131.26,156.14 131.66,155.61 132.06,155.09 132.45,154.58 132.85,154.08 133.25,153.6 133.64,153.13 134.04,152.67 134.44,152.22 134.84,151.78 135.23,151.36 135.63,150.94 136.03,150.54 136.42,150.14 136.82,149.74 137.22,149.36 137.61,148.98 138.01,148.61 138.41,148.24 138.8,147.88 139.2,147.52 139.6,147.17 139.99,146.83 140.39,146.49 140.79,146.16 141.18,145.83 141.58,145.51 141.98,145.21 142.37,144.91 142.77,144.62 143.17,144.35 143.56,144.09 143.96,143.84 144.36,143.6 144.75,143.37 145.15,143.16 145.55,142.96 145.94,142.78 146.34,142.61 146.74,142.45 147.13,142.3 147.53,142.16 147.93,142.04 148.32,141.92 148.72,141.82 149.12,141.71 149.51,141.62 149.91,141.53 150.31,141.44 150.7,141.35 151.1,141.26 151.5,141.18 151.89,141.09 152.29,141 152.69,140.9 153.08,140.81 153.48,140.71 153.88,140.6 154.27,140.5 154.67,140.39 155.07,140.28 155.46,140.17 155.86,140.07 156.26,139.96 156.65,139.87 157.05,139.77 157.45,139.69 157.84,139.61 158.24,139.55 158.64,139.5 159.03,139.46 159.43,139.43 159.83,139.41 160.22,139.4 160.62,139.41 161.02,139.43 161.41,139.46 161.81,139.49 162.21,139.54 162.6,139.59 163,139.65 163.4,139.71 163.8,139.77 164.19,139.83 164.59,139.89 164.99,139.95 165.38,140 165.78,140.05 166.18,140.09 166.57,140.11 166.97,140.13 167.37,140.14 167.76,140.13 168.16,140.11 168.56,140.07 168.95,140.02 169.35,139.95 169.75,139.86 170.14,139.76 170.54,139.64 170.94,139.5 171.33,139.35 171.73,139.17 172.13,138.99 172.52,138.79 172.92,138.58 173.32,138.36 173.71,138.13 174.11,137.89 174.51,137.64 174.9,137.39 175.3,137.13 175.7,136.88 176.09,136.62 176.49,136.36 176.89,136.1 177.28,135.83 177.68,135.57 178.08,135.31 178.47,135.05 178.87,134.79 179.27,134.53 179.66,134.27 180.06,134 180.46,133.74 180.85,133.47 181.25,133.2 181.65,132.93 182.04,132.65 182.44,132.37 182.84,132.09 183.23,131.81 183.63,131.52 184.03,131.23 184.42,130.94 184.82,130.65 185.22,130.35 185.61,130.05 186.01,129.75 186.41,129.45 186.8,129.15 187.2,128.85 187.6,128.56 187.99,128.26 188.39,127.97 188.79,127.69 189.18,127.41 189.58,127.13 189.98,126.87 190.37,126.61 190.77,126.35 191.17,126.11 191.56,125.87 191.96,125.65 192.36,125.43 192.76,125.22 193.15,125.01 193.55,124.82 193.95,124.63 194.34,124.44 194.74,124.26 195.14,124.09 195.53,123.91 195.93,123.74 196.33,123.56 196.72,123.38 197.12,123.2 197.52,123.02 197.91,122.83 198.31,122.63 198.71,122.42 199.1,122.2 199.5,121.97 199.9,121.73 200.29,121.48 200.69,121.21 201.09,120.92 201.48,120.63 201.88,120.32 202.28,119.99 202.67,119.64 203.07,119.28 203.47,118.91 203.86,118.53 204.26,118.13 204.66,117.72 205.05,117.3 205.45,116.87 205.85,116.43 206.24,115.98 206.64,115.53 207.04,115.08 207.43,114.62 207.83,114.16 208.23,113.7 208.62,113.25 209.02,112.79 209.42,112.34 209.81,111.89 210.21,111.44 210.61,110.99 211,110.55 211.4,110.1 211.8,109.66 212.19,109.22 212.59,108.78 212.99,108.34 213.38,107.9 213.78,107.45 214.18,106.99 214.57,106.54 214.97,106.07 215.37,105.6 215.76,105.12 216.16,104.63 216.56,104.13 216.95,103.63 217.35,103.11 217.75,102.59 218.14,102.05 218.54,101.51 218.94,100.96 219.33,100.41 219.73,99.85 220.13,99.29 220.52,98.72 220.92,98.15 221.32,97.58 221.72,97.01 222.11,96.44 222.51,95.87 222.91,95.3 223.3,94.73 223.7,94.17 224.1,93.61 224.49,93.06 224.89,92.51 225.29,91.96 225.68,91.42 226.08,90.88 226.48,90.34 226.87,89.81 227.27,89.28 227.67,88.76 228.06,88.24 228.46,87.72 228.86,87.21 229.25,86.71 229.65,86.21 230.05,85.71 230.44,85.22 230.84,84.74 231.24,84.26 231.63,83.79 232.03,83.32 232.43,82.86 232.82,82.41 233.22,81.97 233.62,81.53 234.01,81.09 234.41,80.67 234.81,80.24 235.2,79.83 235.6,79.41 236,79 236.39,78.6 236.79,78.19 237.19,77.79 237.58,77.38 237.98,76.98 238.38,76.57 238.77,76.17 239.17,75.75 239.57,75.34 239.96,74.91 240.36,74.48 240.76,74.04 241.15,73.59 241.55,73.13 241.95,72.65 242.34,72.15 242.74,71.64 243.14,71.12 243.53,70.57 243.93,70.01 244.33,69.43 244.72,68.83 245.12,68.21 245.52,67.58 245.91,66.94 246.31,66.28 246.71,65.61 247.1,64.94 247.5,64.26 247.9,63.59 248.29,62.92 248.69,62.26 249.09,61.61 249.49,60.97 249.88,60.36 250.28,59.77 250.68,59.21 251.07,58.67 251.47,58.17 251.87,57.69 252.26,57.26 252.66,56.85 253.06,56.48 253.45,56.15 253.85,55.84 254.25,55.57 254.64,55.33 255.04,55.12 255.44,54.93 255.83,54.77 256.23,54.63 256.63,54.51 257.02,54.41 257.42,54.32 257.82,54.25 258.21,54.19 258.61,54.14 259.01,54.1 259.4,54.07 259.8,54.04 260.2,54.02 260.59,54 260.99,53.99 261.39,53.98 261.78,53.97" stroke-dasharray="none" stroke="rgb(31,120,180)" stroke-width="0.75" opacity="1" stroke-opacity="1" fill="none"/>
          </g>
          <g id="Fig:densplot_01.xyplot.lines.group.2.panel.1.1.1">
            <polyline id="Fig:densplot_01.xyplot.lines.group.2.panel.1.1.1.1" points="59.23,53.97 59.63,53.98 60.03,54 60.42,54.01 60.82,54.04 61.22,54.06 61.61,54.1 62.01,54.15 62.4,54.21 62.8,54.28 63.2,54.37 63.59,54.48 63.99,54.62 64.38,54.8 64.78,55 65.18,55.25 65.57,55.55 65.97,55.91 66.37,56.33 66.76,56.83 67.16,57.42 67.55,58.09 67.95,58.86 68.35,59.74 68.74,60.77 69.14,61.93 69.53,63.23 69.93,64.69 70.33,66.3 70.72,68.07 71.12,70.03 71.52,72.2 71.91,74.55 72.31,77.08 72.7,79.8 73.1,82.7 73.5,85.79 73.89,89.07 74.29,92.54 74.69,96.17 75.08,99.94 75.48,103.86 75.87,107.9 76.27,112.05 76.67,116.32 77.06,120.66 77.46,125.06 77.85,129.49 78.25,133.95 78.65,138.41 79.04,142.86 79.44,147.27 79.84,151.63 80.23,155.92 80.63,160.12 81.02,164.23 81.42,168.22 81.82,172.07 82.21,175.78 82.61,179.33 83,182.73 83.4,185.97 83.8,189.04 84.19,191.93 84.59,194.6 84.99,197.1 85.38,199.41 85.78,201.54 86.17,203.49 86.57,205.26 86.97,206.84 87.36,208.23 87.76,209.45 88.15,210.51 88.55,211.41 88.95,212.17 89.34,212.79 89.74,213.25 90.14,213.58 90.53,213.79 90.93,213.9 91.32,213.91 91.72,213.82 92.12,213.65 92.51,213.39 92.91,213.07 93.3,212.69 93.7,212.26 94.1,211.78 94.49,211.26 94.89,210.71 95.29,210.13 95.68,209.53 96.08,208.91 96.47,208.28 96.87,207.64 97.27,206.99 97.66,206.33 98.06,205.67 98.45,205 98.85,204.34 99.25,203.67 99.64,203 100.04,202.33 100.44,201.65 100.83,200.98 101.23,200.31 101.62,199.64 102.02,198.96 102.42,198.29 102.81,197.62 103.21,196.95 103.6,196.28 104,195.61 104.4,194.95 104.79,194.29 105.19,193.63 105.59,192.97 105.98,192.32 106.38,191.68 106.77,191.04 107.17,190.41 107.57,189.78 107.96,189.16 108.36,188.55 108.75,187.95 109.15,187.36 109.55,186.78 109.94,186.21 110.34,185.66 110.74,185.12 111.13,184.59 111.53,184.08 111.92,183.59 112.32,183.11 112.72,182.65 113.11,182.21 113.51,181.78 113.91,181.37 114.3,180.98 114.7,180.59 115.09,180.22 115.49,179.86 115.89,179.51 116.28,179.17 116.68,178.83 117.07,178.5 117.47,178.17 117.87,177.84 118.26,177.51 118.66,177.18 119.06,176.85 119.45,176.52 119.85,176.19 120.24,175.85 120.64,175.51 121.04,175.16 121.43,174.81 121.83,174.45 122.22,174.09 122.62,173.72 123.02,173.35 123.41,172.97 123.81,172.57 124.21,172.17 124.6,171.76 125,171.34 125.39,170.91 125.79,170.48 126.19,170.03 126.58,169.57 126.98,169.11 127.37,168.64 127.77,168.16 128.17,167.68 128.56,167.2 128.96,166.72 129.36,166.23 129.75,165.75 130.15,165.27 130.54,164.79 130.94,164.32 131.34,163.86 131.73,163.4 132.13,162.95 132.52,162.5 132.92,162.07 133.32,161.63 133.71,161.21 134.11,160.79 134.51,160.38 134.9,159.96 135.3,159.56 135.69,159.15 136.09,158.74 136.49,158.34 136.88,157.93 137.28,157.53 137.67,157.12 138.07,156.71 138.47,156.3 138.86,155.89 139.26,155.49 139.66,155.08 140.05,154.68 140.45,154.28 140.84,153.89 141.24,153.5 141.64,153.13 142.03,152.76 142.43,152.41 142.82,152.07 143.22,151.74 143.62,151.42 144.01,151.12 144.41,150.83 144.81,150.55 145.2,150.29 145.6,150.03 145.99,149.79 146.39,149.55 146.79,149.32 147.18,149.09 147.58,148.87 147.97,148.64 148.37,148.42 148.77,148.19 149.16,147.97 149.56,147.74 149.96,147.5 150.35,147.27 150.75,147.03 151.14,146.8 151.54,146.56 151.94,146.33 152.33,146.1 152.73,145.88 153.12,145.66 153.52,145.45 153.92,145.25 154.31,145.06 154.71,144.88 155.11,144.71 155.5,144.55 155.9,144.4 156.29,144.27 156.69,144.13 157.09,144.01 157.48,143.89 157.88,143.78 158.28,143.67 158.67,143.55 159.07,143.44 159.46,143.32 159.86,143.2 160.26,143.08 160.65,142.95 161.05,142.81 161.44,142.66 161.84,142.5 162.24,142.34 162.63,142.17 163.03,141.99 163.43,141.8 163.82,141.6 164.22,141.4 164.61,141.2 165.01,140.98 165.41,140.77 165.8,140.55 166.2,140.33 166.59,140.11 166.99,139.89 167.39,139.67 167.78,139.45 168.18,139.23 168.58,139.01 168.97,138.79 169.37,138.58 169.76,138.36 170.16,138.15 170.56,137.93 170.95,137.72 171.35,137.5 171.74,137.28 172.14,137.05 172.54,136.82 172.93,136.59 173.33,136.35 173.73,136.1 174.12,135.85 174.52,135.58 174.91,135.31 175.31,135.03 175.71,134.75 176.1,134.46 176.5,134.16 176.89,133.85 177.29,133.55 177.69,133.24 178.08,132.92 178.48,132.61 178.88,132.3 179.27,131.98 179.67,131.68 180.06,131.37 180.46,131.07 180.86,130.77 181.25,130.47 181.65,130.19 182.04,129.9 182.44,129.62 182.84,129.35 183.23,129.07 183.63,128.8 184.03,128.54 184.42,128.27 184.82,128.01 185.21,127.75 185.61,127.48 186.01,127.22 186.4,126.95 186.8,126.68 187.19,126.41 187.59,126.14 187.99,125.86 188.38,125.58 188.78,125.3 189.18,125.02 189.57,124.73 189.97,124.44 190.36,124.14 190.76,123.85 191.16,123.55 191.55,123.26 191.95,122.96 192.34,122.67 192.74,122.38 193.14,122.09 193.53,121.8 193.93,121.52 194.33,121.24 194.72,120.96 195.12,120.69 195.51,120.43 195.91,120.16 196.31,119.9 196.7,119.65 197.1,119.39 197.49,119.14 197.89,118.88 198.29,118.62 198.68,118.36 199.08,118.1 199.48,117.83 199.87,117.56 200.27,117.27 200.66,116.99 201.06,116.69 201.46,116.39 201.85,116.08 202.25,115.76 202.65,115.43 203.04,115.1 203.44,114.77 203.83,114.43 204.23,114.1 204.63,113.76 205.02,113.42 205.42,113.08 205.81,112.75 206.21,112.42 206.61,112.1 207,111.78 207.4,111.47 207.8,111.17 208.19,110.87 208.59,110.57 208.98,110.28 209.38,110 209.78,109.71 210.17,109.43 210.57,109.15 210.96,108.86 211.36,108.57 211.76,108.27 212.15,107.96 212.55,107.65 212.95,107.32 213.34,106.98 213.74,106.62 214.13,106.25 214.53,105.87 214.93,105.46 215.32,105.04 215.72,104.61 216.11,104.15 216.51,103.67 216.91,103.18 217.3,102.68 217.7,102.16 218.1,101.62 218.49,101.07 218.89,100.51 219.28,99.94 219.68,99.36 220.08,98.78 220.47,98.19 220.87,97.59 221.26,96.99 221.66,96.4 222.06,95.8 222.45,95.21 222.85,94.63 223.25,94.05 223.64,93.47 224.04,92.91 224.43,92.36 224.83,91.81 225.23,91.28 225.62,90.76 226.02,90.25 226.41,89.75 226.81,89.27 227.21,88.79 227.6,88.33 228,87.88 228.4,87.44 228.79,87.01 229.19,86.59 229.58,86.18 229.98,85.78 230.38,85.39 230.77,85.01 231.17,84.63 231.56,84.26 231.96,83.89 232.36,83.53 232.75,83.17 233.15,82.81 233.55,82.45 233.94,82.09 234.34,81.73 234.73,81.37 235.13,81 235.53,80.63 235.92,80.25 236.32,79.87 236.71,79.47 237.11,79.07 237.51,78.66 237.9,78.24 238.3,77.81 238.7,77.37 239.09,76.92 239.49,76.45 239.88,75.98 240.28,75.48 240.68,74.98 241.07,74.46 241.47,73.92 241.86,73.37 242.26,72.8 242.66,72.22 243.05,71.62 243.45,71.01 243.85,70.38 244.24,69.74 244.64,69.08 245.03,68.41 245.43,67.72 245.83,67.03 246.22,66.33 246.62,65.63 247.02,64.93 247.41,64.23 247.81,63.53 248.2,62.85 248.6,62.17 249,61.52 249.39,60.88 249.79,60.26 250.18,59.67 250.58,59.11 250.98,58.58 251.37,58.08 251.77,57.61 252.17,57.18 252.56,56.78 252.96,56.42 253.35,56.09 253.75,55.79 254.15,55.52 254.54,55.29 254.94,55.08 255.33,54.9 255.73,54.74 256.13,54.61 256.52,54.49 256.92,54.39 257.32,54.31 257.71,54.24 258.11,54.18 258.5,54.13 258.9,54.09 259.3,54.06 259.69,54.04 260.09,54.02 260.48,54 260.88,53.99 261.28,53.98 261.67,53.97" stroke-dasharray="none" stroke="rgb(31,120,180)" stroke-width="0.75" opacity="1" stroke-opacity="1" fill="none"/>
          </g>
          <g id="Fig:densplot_01.xyplot.lines.group.3.panel.1.1.1">
            <polyline id="Fig:densplot_01.xyplot.lines.group.3.panel.1.1.1.1" points="59.15,53.98 59.54,53.99 59.94,54 60.34,54.02 60.73,54.04 61.13,54.07 61.52,54.11 61.92,54.15 62.32,54.21 62.71,54.29 63.11,54.38 63.51,54.5 63.9,54.64 64.3,54.82 64.7,55.03 65.09,55.28 65.49,55.59 65.88,55.94 66.28,56.38 66.68,56.89 67.07,57.48 67.47,58.17 67.87,58.95 68.26,59.85 68.66,60.87 69.06,62.05 69.45,63.36 69.85,64.83 70.25,66.46 70.64,68.26 71.04,70.23 71.43,72.41 71.83,74.78 72.23,77.34 72.62,80.09 73.02,83.02 73.42,86.13 73.81,89.43 74.21,92.93 74.61,96.59 75,100.4 75.4,104.35 75.8,108.43 76.19,112.62 76.59,116.91 76.98,121.29 77.38,125.72 77.78,130.19 78.17,134.68 78.57,139.18 78.97,143.65 79.36,148.09 79.76,152.46 80.16,156.76 80.55,160.97 80.95,165.08 81.34,169.06 81.74,172.91 82.14,176.6 82.53,180.12 82.93,183.49 83.33,186.68 83.72,189.7 84.12,192.54 84.52,195.18 84.91,197.62 85.31,199.88 85.71,201.95 86.1,203.85 86.5,205.57 86.89,207.12 87.29,208.48 87.69,209.68 88.08,210.72 88.48,211.63 88.88,212.4 89.27,213.04 89.67,213.56 90.07,213.95 90.46,214.23 90.86,214.42 91.26,214.52 91.65,214.53 92.05,214.47 92.44,214.32 92.84,214.1 93.24,213.82 93.63,213.49 94.03,213.1 94.43,212.65 94.82,212.16 95.22,211.61 95.62,211.02 96.01,210.4 96.41,209.73 96.81,209.03 97.2,208.29 97.6,207.53 97.99,206.73 98.39,205.91 98.79,205.07 99.18,204.22 99.58,203.34 99.98,202.46 100.37,201.57 100.77,200.68 101.17,199.78 101.56,198.88 101.96,197.99 102.35,197.11 102.75,196.23 103.15,195.37 103.54,194.52 103.94,193.69 104.34,192.87 104.73,192.06 105.13,191.27 105.53,190.5 105.92,189.75 106.32,189.02 106.72,188.3 107.11,187.6 107.51,186.91 107.9,186.25 108.3,185.61 108.7,184.98 109.09,184.38 109.49,183.8 109.89,183.23 110.28,182.69 110.68,182.17 111.08,181.67 111.47,181.19 111.87,180.74 112.27,180.31 112.66,179.9 113.06,179.51 113.45,179.14 113.85,178.79 114.25,178.45 114.64,178.13 115.04,177.82 115.44,177.53 115.83,177.24 116.23,176.96 116.63,176.68 117.02,176.4 117.42,176.13 117.81,175.85 118.21,175.56 118.61,175.27 119,174.98 119.4,174.67 119.8,174.35 120.19,174.02 120.59,173.68 120.99,173.33 121.38,172.96 121.78,172.58 122.18,172.19 122.57,171.78 122.97,171.36 123.36,170.93 123.76,170.49 124.16,170.03 124.55,169.55 124.95,169.07 125.35,168.57 125.74,168.07 126.14,167.55 126.54,167.02 126.93,166.49 127.33,165.94 127.73,165.39 128.12,164.84 128.52,164.28 128.91,163.72 129.31,163.16 129.71,162.61 130.1,162.06 130.5,161.52 130.9,160.98 131.29,160.46 131.69,159.95 132.09,159.46 132.48,158.99 132.88,158.54 133.27,158.11 133.67,157.69 134.07,157.3 134.46,156.93 134.86,156.58 135.26,156.25 135.65,155.94 136.05,155.64 136.45,155.35 136.84,155.08 137.24,154.82 137.64,154.57 138.03,154.32 138.43,154.08 138.82,153.84 139.22,153.6 139.62,153.36 140.01,153.11 140.41,152.86 140.81,152.61 141.2,152.35 141.6,152.09 142,151.83 142.39,151.56 142.79,151.28 143.19,151.01 143.58,150.74 143.98,150.46 144.37,150.19 144.77,149.92 145.17,149.66 145.56,149.4 145.96,149.15 146.36,148.9 146.75,148.66 147.15,148.43 147.55,148.21 147.94,148 148.34,147.79 148.73,147.59 149.13,147.4 149.53,147.22 149.92,147.04 150.32,146.86 150.72,146.69 151.11,146.53 151.51,146.36 151.91,146.2 152.3,146.04 152.7,145.88 153.1,145.71 153.49,145.55 153.89,145.38 154.28,145.22 154.68,145.05 155.08,144.87 155.47,144.7 155.87,144.52 156.27,144.34 156.66,144.16 157.06,143.98 157.46,143.79 157.85,143.61 158.25,143.43 158.65,143.25 159.04,143.08 159.44,142.91 159.83,142.74 160.23,142.59 160.63,142.44 161.02,142.3 161.42,142.17 161.82,142.06 162.21,141.95 162.61,141.86 163.01,141.77 163.4,141.7 163.8,141.64 164.19,141.58 164.59,141.54 164.99,141.49 165.38,141.45 165.78,141.42 166.18,141.38 166.57,141.34 166.97,141.29 167.37,141.24 167.76,141.18 168.16,141.11 168.56,141.02 168.95,140.92 169.35,140.81 169.74,140.68 170.14,140.53 170.54,140.36 170.93,140.18 171.33,139.97 171.73,139.75 172.12,139.5 172.52,139.25 172.92,138.97 173.31,138.68 173.71,138.37 174.11,138.05 174.5,137.71 174.9,137.37 175.29,137.01 175.69,136.66 176.09,136.29 176.48,135.92 176.88,135.55 177.28,135.19 177.67,134.82 178.07,134.46 178.47,134.11 178.86,133.76 179.26,133.42 179.66,133.09 180.05,132.77 180.45,132.46 180.84,132.16 181.24,131.87 181.64,131.59 182.03,131.33 182.43,131.07 182.83,130.82 183.22,130.58 183.62,130.34 184.02,130.11 184.41,129.88 184.81,129.66 185.2,129.44 185.6,129.21 186,128.99 186.39,128.77 186.79,128.54 187.19,128.3 187.58,128.07 187.98,127.82 188.38,127.57 188.77,127.32 189.17,127.06 189.57,126.79 189.96,126.51 190.36,126.23 190.75,125.93 191.15,125.63 191.55,125.33 191.94,125.01 192.34,124.68 192.74,124.35 193.13,124.02 193.53,123.67 193.93,123.32 194.32,122.97 194.72,122.61 195.12,122.25 195.51,121.9 195.91,121.54 196.3,121.18 196.7,120.82 197.1,120.47 197.49,120.13 197.89,119.79 198.29,119.45 198.68,119.12 199.08,118.8 199.48,118.48 199.87,118.17 200.27,117.87 200.66,117.57 201.06,117.28 201.46,116.98 201.85,116.7 202.25,116.41 202.65,116.13 203.04,115.85 203.44,115.57 203.84,115.29 204.23,115.01 204.63,114.73 205.03,114.46 205.42,114.18 205.82,113.91 206.21,113.63 206.61,113.36 207.01,113.09 207.4,112.82 207.8,112.54 208.2,112.27 208.59,111.99 208.99,111.71 209.39,111.43 209.78,111.14 210.18,110.84 210.58,110.53 210.97,110.21 211.37,109.88 211.76,109.54 212.16,109.18 212.56,108.81 212.95,108.42 213.35,108.02 213.75,107.59 214.14,107.15 214.54,106.7 214.94,106.23 215.33,105.74 215.73,105.24 216.12,104.73 216.52,104.21 216.92,103.68 217.31,103.14 217.71,102.6 218.11,102.06 218.5,101.51 218.9,100.96 219.3,100.41 219.69,99.86 220.09,99.31 220.49,98.77 220.88,98.22 221.28,97.67 221.67,97.13 222.07,96.58 222.47,96.04 222.86,95.49 223.26,94.94 223.66,94.4 224.05,93.85 224.45,93.3 224.85,92.74 225.24,92.19 225.64,91.64 226.04,91.09 226.43,90.54 226.83,90 227.22,89.46 227.62,88.93 228.02,88.4 228.41,87.88 228.81,87.37 229.21,86.87 229.6,86.39 230,85.91 230.4,85.44 230.79,84.99 231.19,84.55 231.58,84.12 231.98,83.7 232.38,83.29 232.77,82.88 233.17,82.49 233.57,82.1 233.96,81.72 234.36,81.34 234.76,80.97 235.15,80.59 235.55,80.22 235.95,79.85 236.34,79.47 236.74,79.09 237.13,78.71 237.53,78.32 237.93,77.92 238.32,77.51 238.72,77.09 239.12,76.66 239.51,76.22 239.91,75.76 240.31,75.28 240.7,74.79 241.1,74.28 241.5,73.75 241.89,73.2 242.29,72.63 242.68,72.04 243.08,71.42 243.48,70.79 243.87,70.14 244.27,69.47 244.67,68.79 245.06,68.09 245.46,67.38 245.86,66.66 246.25,65.93 246.65,65.21 247.04,64.48 247.44,63.76 247.84,63.06 248.23,62.36 248.63,61.69 249.03,61.03 249.42,60.39 249.82,59.79 250.22,59.22 250.61,58.67 251.01,58.16 251.41,57.69 251.8,57.25 252.2,56.84 252.59,56.47 252.99,56.14 253.39,55.83 253.78,55.56 254.18,55.32 254.58,55.11 254.97,54.92 255.37,54.76 255.77,54.63 256.16,54.51 256.56,54.41 256.96,54.32 257.35,54.25 257.75,54.19 258.14,54.14 258.54,54.1 258.94,54.07 259.33,54.04 259.73,54.02 260.13,54 260.52,53.99 260.92,53.98 261.32,53.97 261.71,53.97" stroke-dasharray="none" stroke="rgb(31,120,180)" stroke-width="0.75" opacity="1" stroke-opacity="1" fill="none"/>
          </g>
          <g id="Fig:densplot_01.xyplot.lines.group.4.panel.1.1.1">
            <polyline id="Fig:densplot_01.xyplot.lines.group.4.panel.1.1.1.1" points="59.12,53.98 59.52,53.99 59.91,54 60.31,54.02 60.7,54.05 61.1,54.08 61.5,54.12 61.89,54.17 62.29,54.24 62.69,54.32 63.08,54.42 63.48,54.54 63.88,54.69 64.27,54.88 64.67,55.1 65.07,55.37 65.46,55.69 65.86,56.07 66.26,56.52 66.65,57.05 67.05,57.67 67.45,58.38 67.84,59.2 68.24,60.13 68.64,61.18 69.03,62.4 69.43,63.76 69.83,65.27 70.22,66.95 70.62,68.79 71.02,70.81 71.41,73.02 71.81,75.45 72.21,78.06 72.6,80.86 73,83.84 73.39,87.01 73.79,90.35 74.19,93.89 74.58,97.6 74.98,101.45 75.38,105.45 75.77,109.56 76.17,113.79 76.57,118.11 76.96,122.51 77.36,126.97 77.76,131.46 78.15,135.97 78.55,140.47 78.95,144.96 79.34,149.4 79.74,153.77 80.14,158.07 80.53,162.27 80.93,166.36 81.33,170.34 81.72,174.18 82.12,177.84 82.52,181.35 82.91,184.68 83.31,187.85 83.71,190.84 84.1,193.65 84.5,196.26 84.89,198.66 85.29,200.88 85.69,202.92 86.08,204.77 86.48,206.45 86.88,207.96 87.27,209.28 87.67,210.43 88.07,211.43 88.46,212.29 88.86,213.02 89.26,213.61 89.65,214.09 90.05,214.43 90.45,214.67 90.84,214.81 91.24,214.87 91.64,214.84 92.03,214.74 92.43,214.57 92.83,214.32 93.22,214.02 93.62,213.66 94.02,213.25 94.41,212.8 94.81,212.3 95.21,211.75 95.6,211.16 96,210.53 96.39,209.86 96.79,209.17 97.19,208.44 97.58,207.68 97.98,206.88 98.38,206.06 98.77,205.22 99.17,204.35 99.57,203.47 99.96,202.57 100.36,201.65 100.76,200.72 101.15,199.78 101.55,198.83 101.95,197.88 102.34,196.94 102.74,195.99 103.14,195.05 103.53,194.11 103.93,193.19 104.33,192.29 104.72,191.39 105.12,190.52 105.52,189.67 105.91,188.84 106.31,188.04 106.71,187.26 107.1,186.51 107.5,185.78 107.89,185.09 108.29,184.42 108.69,183.77 109.08,183.15 109.48,182.56 109.88,181.98 110.27,181.43 110.67,180.89 111.07,180.38 111.46,179.87 111.86,179.38 112.26,178.89 112.65,178.42 113.05,177.95 113.45,177.48 113.84,177.02 114.24,176.56 114.64,176.11 115.03,175.66 115.43,175.2 115.83,174.76 116.22,174.31 116.62,173.88 117.02,173.44 117.41,173.02 117.81,172.61 118.21,172.2 118.6,171.81 119,171.43 119.39,171.06 119.79,170.7 120.19,170.36 120.58,170.03 120.98,169.7 121.38,169.39 121.77,169.08 122.17,168.78 122.57,168.48 122.96,168.18 123.36,167.87 123.76,167.55 124.15,167.23 124.55,166.89 124.95,166.53 125.34,166.16 125.74,165.77 126.14,165.36 126.53,164.92 126.93,164.47 127.33,164 127.72,163.51 128.12,163.01 128.52,162.5 128.91,161.98 129.31,161.45 129.71,160.93 130.1,160.41 130.5,159.89 130.89,159.39 131.29,158.9 131.69,158.42 132.08,157.97 132.48,157.54 132.88,157.13 133.27,156.74 133.67,156.38 134.07,156.03 134.46,155.71 134.86,155.41 135.26,155.13 135.65,154.86 136.05,154.6 136.45,154.35 136.84,154.11 137.24,153.88 137.64,153.65 138.03,153.42 138.43,153.18 138.83,152.94 139.22,152.7 139.62,152.45 140.02,152.2 140.41,151.94 140.81,151.68 141.21,151.41 141.6,151.14 142,150.87 142.4,150.6 142.79,150.32 143.19,150.05 143.58,149.78 143.98,149.52 144.38,149.25 144.77,149 145.17,148.75 145.57,148.51 145.96,148.28 146.36,148.05 146.76,147.84 147.15,147.63 147.55,147.43 147.95,147.24 148.34,147.07 148.74,146.9 149.14,146.74 149.53,146.59 149.93,146.45 150.33,146.32 150.72,146.2 151.12,146.09 151.52,146 151.91,145.91 152.31,145.83 152.71,145.75 153.1,145.69 153.5,145.63 153.9,145.57 154.29,145.51 154.69,145.45 155.08,145.39 155.48,145.33 155.88,145.26 156.27,145.17 156.67,145.08 157.07,144.98 157.46,144.87 157.86,144.74 158.26,144.6 158.65,144.44 159.05,144.27 159.45,144.09 159.84,143.9 160.24,143.7 160.64,143.48 161.03,143.26 161.43,143.04 161.83,142.81 162.22,142.58 162.62,142.35 163.02,142.13 163.41,141.9 163.81,141.69 164.21,141.48 164.6,141.28 165,141.09 165.4,140.92 165.79,140.75 166.19,140.6 166.58,140.46 166.98,140.34 167.38,140.22 167.77,140.12 168.17,140.03 168.57,139.95 168.96,139.88 169.36,139.82 169.76,139.77 170.15,139.71 170.55,139.66 170.95,139.61 171.34,139.56 171.74,139.5 172.14,139.44 172.53,139.36 172.93,139.28 173.33,139.18 173.72,139.07 174.12,138.95 174.52,138.8 174.91,138.64 175.31,138.47 175.71,138.27 176.1,138.06 176.5,137.84 176.9,137.59 177.29,137.33 177.69,137.06 178.08,136.78 178.48,136.49 178.88,136.19 179.27,135.88 179.67,135.57 180.07,135.26 180.46,134.94 180.86,134.62 181.26,134.31 181.65,133.99 182.05,133.68 182.45,133.37 182.84,133.06 183.24,132.76 183.64,132.46 184.03,132.16 184.43,131.86 184.83,131.57 185.22,131.27 185.62,130.98 186.02,130.69 186.41,130.4 186.81,130.1 187.21,129.81 187.6,129.51 188,129.22 188.4,128.92 188.79,128.62 189.19,128.31 189.58,128.01 189.98,127.7 190.38,127.39 190.77,127.08 191.17,126.76 191.57,126.45 191.96,126.13 192.36,125.81 192.76,125.48 193.15,125.16 193.55,124.83 193.95,124.51 194.34,124.18 194.74,123.85 195.14,123.52 195.53,123.19 195.93,122.86 196.33,122.52 196.72,122.19 197.12,121.86 197.52,121.52 197.91,121.19 198.31,120.85 198.71,120.52 199.1,120.18 199.5,119.84 199.9,119.5 200.29,119.15 200.69,118.81 201.08,118.46 201.48,118.12 201.88,117.77 202.27,117.42 202.67,117.07 203.07,116.73 203.46,116.38 203.86,116.03 204.26,115.69 204.65,115.35 205.05,115.01 205.45,114.67 205.84,114.34 206.24,114.02 206.64,113.7 207.03,113.38 207.43,113.07 207.83,112.76 208.22,112.46 208.62,112.16 209.02,111.87 209.41,111.58 209.81,111.28 210.21,110.99 210.6,110.69 211,110.39 211.4,110.08 211.79,109.76 212.19,109.43 212.59,109.08 212.98,108.73 213.38,108.35 213.77,107.96 214.17,107.55 214.57,107.12 214.96,106.67 215.36,106.21 215.76,105.72 216.15,105.21 216.55,104.68 216.95,104.14 217.34,103.58 217.74,103.01 218.14,102.43 218.53,101.84 218.93,101.24 219.33,100.64 219.72,100.03 220.12,99.43 220.52,98.82 220.91,98.22 221.31,97.63 221.71,97.04 222.1,96.46 222.5,95.89 222.9,95.32 223.29,94.77 223.69,94.22 224.09,93.68 224.48,93.15 224.88,92.63 225.27,92.11 225.67,91.6 226.07,91.1 226.46,90.59 226.86,90.1 227.26,89.6 227.65,89.11 228.05,88.62 228.45,88.13 228.84,87.64 229.24,87.15 229.64,86.67 230.03,86.18 230.43,85.7 230.83,85.22 231.22,84.74 231.62,84.26 232.02,83.79 232.41,83.32 232.81,82.85 233.21,82.39 233.6,81.93 234,81.48 234.4,81.04 234.79,80.59 235.19,80.16 235.59,79.73 235.98,79.3 236.38,78.88 236.77,78.46 237.17,78.04 237.57,77.62 237.96,77.21 238.36,76.79 238.76,76.36 239.15,75.93 239.55,75.5 239.95,75.05 240.34,74.59 240.74,74.12 241.14,73.63 241.53,73.13 241.93,72.61 242.33,72.07 242.72,71.51 243.12,70.93 243.52,70.33 243.91,69.71 244.31,69.08 244.71,68.42 245.1,67.75 245.5,67.07 245.9,66.38 246.29,65.69 246.69,64.99 247.09,64.29 247.48,63.59 247.88,62.91 248.27,62.24 248.67,61.58 249.07,60.94 249.46,60.32 249.86,59.73 250.26,59.17 250.65,58.64 251.05,58.14 251.45,57.67 251.84,57.23 252.24,56.83 252.64,56.47 253.03,56.14 253.43,55.84 253.83,55.57 254.22,55.33 254.62,55.12 255.02,54.93 255.41,54.77 255.81,54.64 256.21,54.52 256.6,54.41 257,54.33 257.4,54.25 257.79,54.2 258.19,54.15 258.59,54.11 258.98,54.07 259.38,54.04 259.77,54.02 260.17,54.01 260.57,53.99 260.96,53.98 261.36,53.97 261.76,53.97" stroke-dasharray="none" stroke="rgb(31,120,180)" stroke-width="0.75" opacity="1" stroke-opacity="1" fill="none"/>
          </g>
          <g id="Fig:densplot_01.xyplot.lines.group.5.panel.1.1.1">
            <polyline id="Fig:densplot_01.xyplot.lines.group.5.panel.1.1.1.1" points="59.16,53.98 59.55,53.99 59.95,54 60.35,54.02 60.74,54.05 61.14,54.08 61.54,54.12 61.93,54.17 62.33,54.23 62.73,54.31 63.12,54.4 63.52,54.52 63.91,54.67 64.31,54.86 64.71,55.07 65.1,55.33 65.5,55.64 65.9,56.01 66.29,56.45 66.69,56.97 67.09,57.56 67.48,58.25 67.88,59.04 68.27,59.94 68.67,60.97 69.07,62.15 69.46,63.46 69.86,64.93 70.26,66.55 70.65,68.33 71.05,70.28 71.45,72.44 71.84,74.79 72.24,77.32 72.64,80.03 73.03,82.92 73.43,85.99 73.82,89.24 74.22,92.69 74.62,96.29 75.01,100.04 75.41,103.93 75.81,107.94 76.2,112.06 76.6,116.28 77,120.59 77.39,124.95 77.79,129.35 78.18,133.77 78.58,138.19 78.98,142.6 79.37,146.97 79.77,151.29 80.17,155.53 80.56,159.69 80.96,163.76 81.36,167.71 81.75,171.54 82.15,175.2 82.55,178.72 82.94,182.09 83.34,185.3 83.73,188.34 84.13,191.22 84.53,193.9 84.92,196.39 85.32,198.71 85.72,200.85 86.11,202.83 86.51,204.63 86.91,206.27 87.3,207.71 87.7,209 88.09,210.14 88.49,211.13 88.89,211.98 89.28,212.7 89.68,213.28 90.08,213.73 90.47,214.06 90.87,214.28 91.27,214.4 91.66,214.43 92.06,214.37 92.46,214.21 92.85,213.98 93.25,213.67 93.64,213.31 94.04,212.88 94.44,212.4 94.83,211.87 95.23,211.3 95.63,210.69 96.02,210.05 96.42,209.38 96.82,208.7 97.21,207.99 97.61,207.28 98,206.55 98.4,205.82 98.8,205.08 99.19,204.35 99.59,203.61 99.99,202.87 100.38,202.14 100.78,201.41 101.18,200.67 101.57,199.94 101.97,199.21 102.37,198.47 102.76,197.73 103.16,196.99 103.55,196.24 103.95,195.48 104.35,194.72 104.74,193.95 105.14,193.17 105.54,192.38 105.93,191.59 106.33,190.78 106.73,189.98 107.12,189.17 107.52,188.36 107.91,187.55 108.31,186.75 108.71,185.95 109.1,185.16 109.5,184.39 109.9,183.62 110.29,182.87 110.69,182.15 111.09,181.44 111.48,180.76 111.88,180.1 112.27,179.46 112.67,178.85 113.07,178.27 113.46,177.71 113.86,177.19 114.26,176.69 114.65,176.21 115.05,175.77 115.45,175.34 115.84,174.94 116.24,174.57 116.64,174.22 117.03,173.88 117.43,173.56 117.82,173.26 118.22,172.97 118.62,172.68 119.01,172.4 119.41,172.13 119.81,171.85 120.2,171.57 120.6,171.29 121,171 121.39,170.69 121.79,170.37 122.18,170.04 122.58,169.69 122.98,169.32 123.37,168.94 123.77,168.54 124.17,168.13 124.56,167.7 124.96,167.25 125.36,166.8 125.75,166.34 126.15,165.87 126.55,165.4 126.94,164.92 127.34,164.45 127.73,163.98 128.13,163.52 128.53,163.06 128.92,162.61 129.32,162.17 129.72,161.74 130.11,161.32 130.51,160.91 130.91,160.51 131.3,160.12 131.7,159.73 132.09,159.35 132.49,158.97 132.89,158.59 133.28,158.22 133.68,157.84 134.08,157.46 134.47,157.07 134.87,156.68 135.27,156.28 135.66,155.88 136.06,155.47 136.46,155.05 136.85,154.63 137.25,154.2 137.64,153.77 138.04,153.34 138.44,152.9 138.83,152.47 139.23,152.05 139.63,151.63 140.02,151.22 140.42,150.82 140.82,150.44 141.21,150.07 141.61,149.72 142,149.39 142.4,149.08 142.8,148.8 143.19,148.55 143.59,148.32 143.99,148.12 144.38,147.94 144.78,147.79 145.18,147.67 145.57,147.57 145.97,147.5 146.37,147.44 146.76,147.41 147.16,147.39 147.55,147.39 147.95,147.41 148.35,147.43 148.74,147.45 149.14,147.48 149.54,147.5 149.93,147.52 150.33,147.53 150.73,147.53 151.12,147.51 151.52,147.48 151.91,147.43 152.31,147.37 152.71,147.28 153.1,147.17 153.5,147.04 153.9,146.89 154.29,146.72 154.69,146.54 155.09,146.34 155.48,146.13 155.88,145.9 156.28,145.67 156.67,145.43 157.07,145.19 157.46,144.94 157.86,144.7 158.26,144.46 158.65,144.23 159.05,144 159.45,143.78 159.84,143.57 160.24,143.38 160.64,143.19 161.03,143.01 161.43,142.85 161.82,142.69 162.22,142.54 162.62,142.41 163.01,142.28 163.41,142.16 163.81,142.05 164.2,141.95 164.6,141.85 165,141.76 165.39,141.68 165.79,141.6 166.18,141.52 166.58,141.45 166.98,141.38 167.37,141.31 167.77,141.25 168.17,141.18 168.56,141.11 168.96,141.04 169.36,140.97 169.75,140.89 170.15,140.81 170.55,140.72 170.94,140.62 171.34,140.51 171.73,140.39 172.13,140.25 172.53,140.11 172.92,139.95 173.32,139.77 173.72,139.58 174.11,139.38 174.51,139.16 174.91,138.92 175.3,138.68 175.7,138.42 176.09,138.15 176.49,137.87 176.89,137.58 177.28,137.28 177.68,136.98 178.08,136.67 178.47,136.35 178.87,136.03 179.27,135.7 179.66,135.38 180.06,135.04 180.46,134.71 180.85,134.37 181.25,134.03 181.64,133.69 182.04,133.36 182.44,133.02 182.83,132.68 183.23,132.34 183.63,132.01 184.02,131.68 184.42,131.35 184.82,131.03 185.21,130.71 185.61,130.4 186,130.1 186.4,129.8 186.8,129.51 187.19,129.23 187.59,128.95 187.99,128.68 188.38,128.42 188.78,128.16 189.18,127.91 189.57,127.67 189.97,127.43 190.37,127.19 190.76,126.96 191.16,126.73 191.55,126.51 191.95,126.28 192.35,126.06 192.74,125.83 193.14,125.61 193.54,125.38 193.93,125.15 194.33,124.91 194.73,124.67 195.12,124.43 195.52,124.18 195.91,123.92 196.31,123.66 196.71,123.39 197.1,123.11 197.5,122.82 197.9,122.52 198.29,122.21 198.69,121.89 199.09,121.57 199.48,121.23 199.88,120.89 200.28,120.53 200.67,120.17 201.07,119.81 201.46,119.43 201.86,119.05 202.26,118.67 202.65,118.28 203.05,117.9 203.45,117.51 203.84,117.12 204.24,116.73 204.64,116.34 205.03,115.95 205.43,115.56 205.82,115.17 206.22,114.78 206.62,114.39 207.01,114 207.41,113.61 207.81,113.21 208.2,112.8 208.6,112.39 209,111.97 209.39,111.54 209.79,111.1 210.18,110.64 210.58,110.18 210.98,109.7 211.37,109.2 211.77,108.7 212.17,108.18 212.56,107.65 212.96,107.11 213.36,106.56 213.75,106 214.15,105.44 214.55,104.87 214.94,104.3 215.34,103.73 215.73,103.16 216.13,102.6 216.53,102.05 216.92,101.5 217.32,100.95 217.72,100.42 218.11,99.9 218.51,99.39 218.91,98.89 219.3,98.4 219.7,97.92 220.09,97.45 220.49,96.99 220.89,96.53 221.28,96.09 221.68,95.66 222.08,95.23 222.47,94.81 222.87,94.39 223.27,93.98 223.66,93.57 224.06,93.16 224.46,92.76 224.85,92.36 225.25,91.97 225.64,91.57 226.04,91.18 226.44,90.78 226.83,90.39 227.23,89.99 227.63,89.59 228.02,89.19 228.42,88.78 228.82,88.37 229.21,87.95 229.61,87.52 230,87.09 230.4,86.66 230.8,86.21 231.19,85.76 231.59,85.3 231.99,84.84 232.38,84.36 232.78,83.89 233.18,83.41 233.57,82.92 233.97,82.44 234.37,81.95 234.76,81.46 235.16,80.96 235.55,80.47 235.95,79.98 236.35,79.49 236.74,79 237.14,78.51 237.54,78.02 237.93,77.53 238.33,77.03 238.73,76.54 239.12,76.04 239.52,75.54 239.91,75.03 240.31,74.52 240.71,74 241.1,73.47 241.5,72.92 241.9,72.37 242.29,71.8 242.69,71.22 243.09,70.63 243.48,70.02 243.88,69.4 244.28,68.77 244.67,68.12 245.07,67.46 245.46,66.79 245.86,66.12 246.26,65.44 246.65,64.76 247.05,64.08 247.45,63.4 247.84,62.74 248.24,62.08 248.64,61.44 249.03,60.82 249.43,60.22 249.82,59.64 250.22,59.09 250.62,58.57 251.01,58.08 251.41,57.62 251.81,57.19 252.2,56.8 252.6,56.44 253,56.11 253.39,55.82 253.79,55.55 254.18,55.32 254.58,55.11 254.98,54.92 255.37,54.76 255.77,54.63 256.17,54.51 256.56,54.41 256.96,54.32 257.36,54.25 257.75,54.19 258.15,54.14 258.55,54.1 258.94,54.07 259.34,54.04 259.73,54.02 260.13,54 260.53,53.99 260.92,53.98 261.32,53.97 261.72,53.97" stroke-dasharray="none" stroke="rgb(31,120,180)" stroke-width="0.75" opacity="1" stroke-opacity="1" fill="none"/>
          </g>
          <g id="Fig:densplot_01.xyplot.lines.group.6.panel.1.1.1">
            <polyline id="Fig:densplot_01.xyplot.lines.group.6.panel.1.1.1.1" points="59.05,53.98 59.45,53.99 59.85,54.01 60.24,54.02 60.64,54.05 61.04,54.08 61.43,54.12 61.83,54.17 62.23,54.24 62.62,54.32 63.02,54.42 63.42,54.54 63.81,54.7 64.21,54.89 64.61,55.11 65,55.39 65.4,55.71 65.8,56.09 66.19,56.54 66.59,57.08 66.98,57.7 67.38,58.42 67.78,59.25 68.17,60.19 68.57,61.25 68.97,62.46 69.36,63.84 69.76,65.37 70.16,67.06 70.55,68.93 70.95,70.97 71.35,73.2 71.74,75.65 72.14,78.29 72.54,81.12 72.93,84.14 73.33,87.35 73.73,90.74 74.12,94.31 74.52,98.07 74.92,101.98 75.31,106.03 75.71,110.2 76.11,114.49 76.5,118.87 76.9,123.33 77.3,127.85 77.69,132.4 78.09,136.97 78.49,141.53 78.88,146.07 79.28,150.57 79.68,155 80.07,159.34 80.47,163.58 80.87,167.71 81.26,171.72 81.66,175.59 82.06,179.3 82.45,182.82 82.85,186.18 83.25,189.37 83.64,192.37 84.04,195.19 84.44,197.82 84.83,200.23 85.23,202.45 85.63,204.49 86.02,206.34 86.42,208.02 86.82,209.52 87.21,210.84 87.61,211.97 88.01,212.95 88.4,213.78 88.8,214.47 89.2,215.03 89.59,215.46 89.99,215.76 90.39,215.94 90.78,216.02 91.18,216.01 91.58,215.91 91.97,215.73 92.37,215.47 92.77,215.14 93.16,214.75 93.56,214.3 93.96,213.81 94.35,213.27 94.75,212.69 95.15,212.07 95.54,211.41 95.94,210.73 96.34,210.02 96.73,209.29 97.13,208.54 97.53,207.77 97.92,206.99 98.32,206.19 98.72,205.38 99.11,204.56 99.51,203.74 99.91,202.91 100.3,202.07 100.7,201.23 101.1,200.4 101.49,199.56 101.89,198.72 102.29,197.88 102.68,197.05 103.08,196.22 103.48,195.4 103.87,194.58 104.27,193.78 104.67,192.98 105.06,192.2 105.46,191.42 105.86,190.66 106.25,189.92 106.65,189.19 107.05,188.48 107.44,187.78 107.84,187.1 108.24,186.44 108.63,185.8 109.03,185.17 109.43,184.56 109.82,183.97 110.22,183.4 110.62,182.83 111.01,182.29 111.41,181.76 111.81,181.23 112.2,180.72 112.6,180.22 113,179.72 113.39,179.23 113.79,178.75 114.19,178.26 114.58,177.78 114.98,177.3 115.38,176.83 115.77,176.35 116.17,175.87 116.57,175.38 116.96,174.9 117.36,174.42 117.76,173.93 118.15,173.44 118.55,172.95 118.95,172.46 119.34,171.96 119.74,171.47 120.14,170.97 120.53,170.47 120.93,169.97 121.33,169.46 121.72,168.96 122.12,168.45 122.52,167.95 122.91,167.44 123.31,166.94 123.71,166.44 124.1,165.94 124.5,165.44 124.9,164.95 125.29,164.46 125.69,163.99 126.09,163.52 126.48,163.06 126.88,162.61 127.28,162.17 127.67,161.75 128.07,161.33 128.47,160.93 128.86,160.53 129.26,160.15 129.66,159.78 130.05,159.41 130.45,159.05 130.85,158.7 131.24,158.35 131.64,158 132.04,157.65 132.43,157.3 132.83,156.95 133.23,156.6 133.62,156.24 134.02,155.88 134.42,155.52 134.81,155.16 135.21,154.79 135.61,154.42 136,154.05 136.4,153.69 136.79,153.32 137.19,152.96 137.59,152.6 137.98,152.26 138.38,151.91 138.78,151.58 139.17,151.26 139.57,150.94 139.97,150.64 140.36,150.34 140.76,150.06 141.16,149.78 141.55,149.51 141.95,149.25 142.35,149 142.74,148.75 143.14,148.5 143.54,148.26 143.93,148.02 144.33,147.78 144.73,147.54 145.12,147.31 145.52,147.08 145.92,146.85 146.31,146.62 146.71,146.4 147.11,146.18 147.5,145.97 147.9,145.77 148.3,145.58 148.69,145.4 149.09,145.23 149.49,145.07 149.88,144.92 150.28,144.79 150.68,144.67 151.07,144.56 151.47,144.46 151.87,144.37 152.26,144.29 152.66,144.22 153.06,144.15 153.45,144.09 153.85,144.04 154.25,143.98 154.64,143.93 155.04,143.87 155.44,143.81 155.83,143.75 156.23,143.68 156.63,143.61 157.02,143.53 157.42,143.45 157.82,143.36 158.21,143.26 158.61,143.16 159.01,143.05 159.4,142.94 159.8,142.83 160.2,142.71 160.59,142.59 160.99,142.47 161.39,142.36 161.78,142.24 162.18,142.13 162.58,142.03 162.97,141.93 163.37,141.84 163.77,141.75 164.16,141.68 164.56,141.61 164.96,141.55 165.35,141.5 165.75,141.46 166.15,141.43 166.54,141.41 166.94,141.39 167.34,141.37 167.73,141.35 168.13,141.34 168.53,141.32 168.92,141.3 169.32,141.27 169.72,141.23 170.11,141.18 170.51,141.12 170.91,141.05 171.3,140.95 171.7,140.84 172.1,140.7 172.49,140.55 172.89,140.38 173.29,140.18 173.68,139.97 174.08,139.72 174.48,139.46 174.87,139.18 175.27,138.87 175.67,138.55 176.06,138.21 176.46,137.85 176.86,137.48 177.25,137.09 177.65,136.69 178.05,136.29 178.44,135.88 178.84,135.47 179.24,135.05 179.63,134.64 180.03,134.24 180.43,133.84 180.82,133.45 181.22,133.06 181.62,132.69 182.01,132.34 182.41,131.99 182.81,131.66 183.2,131.34 183.6,131.03 184,130.73 184.39,130.44 184.79,130.16 185.19,129.89 185.58,129.62 185.98,129.36 186.38,129.1 186.77,128.84 187.17,128.57 187.57,128.31 187.96,128.05 188.36,127.79 188.76,127.52 189.15,127.25 189.55,126.98 189.95,126.7 190.34,126.42 190.74,126.15 191.14,125.87 191.53,125.59 191.93,125.31 192.33,125.03 192.72,124.76 193.12,124.48 193.52,124.21 193.91,123.93 194.31,123.66 194.71,123.38 195.1,123.11 195.5,122.83 195.9,122.55 196.29,122.27 196.69,121.98 197.09,121.68 197.48,121.38 197.88,121.07 198.28,120.75 198.67,120.43 199.07,120.09 199.47,119.74 199.86,119.38 200.26,119 200.66,118.62 201.05,118.23 201.45,117.83 201.85,117.42 202.24,117.01 202.64,116.59 203.04,116.18 203.43,115.76 203.83,115.35 204.23,114.94 204.62,114.54 205.02,114.16 205.42,113.78 205.81,113.42 206.21,113.07 206.6,112.74 207,112.42 207.4,112.12 207.79,111.83 208.19,111.56 208.59,111.3 208.98,111.04 209.38,110.8 209.78,110.56 210.17,110.31 210.57,110.07 210.97,109.82 211.36,109.56 211.76,109.29 212.16,109.01 212.55,108.71 212.95,108.39 213.35,108.05 213.74,107.68 214.14,107.3 214.54,106.88 214.93,106.44 215.33,105.98 215.73,105.49 216.12,104.98 216.52,104.44 216.92,103.89 217.31,103.31 217.71,102.72 218.11,102.12 218.5,101.5 218.9,100.87 219.3,100.24 219.69,99.6 220.09,98.96 220.49,98.32 220.88,97.69 221.28,97.06 221.68,96.43 222.07,95.82 222.47,95.21 222.87,94.62 223.26,94.04 223.66,93.47 224.06,92.92 224.45,92.38 224.85,91.85 225.25,91.33 225.64,90.82 226.04,90.33 226.44,89.85 226.83,89.38 227.23,88.92 227.63,88.47 228.02,88.02 228.42,87.59 228.82,87.16 229.21,86.73 229.61,86.31 230.01,85.9 230.4,85.48 230.8,85.07 231.2,84.67 231.59,84.26 231.99,83.86 232.39,83.46 232.78,83.06 233.18,82.66 233.58,82.26 233.97,81.87 234.37,81.47 234.77,81.08 235.16,80.68 235.56,80.29 235.96,79.89 236.35,79.5 236.75,79.1 237.15,78.7 237.54,78.3 237.94,77.9 238.34,77.49 238.73,77.08 239.13,76.66 239.53,76.22 239.92,75.78 240.32,75.33 240.72,74.87 241.11,74.38 241.51,73.89 241.91,73.37 242.3,72.84 242.7,72.28 243.1,71.71 243.49,71.11 243.89,70.5 244.29,69.86 244.68,69.21 245.08,68.54 245.48,67.85 245.87,67.15 246.27,66.44 246.67,65.73 247.06,65.01 247.46,64.3 247.86,63.58 248.25,62.88 248.65,62.19 249.05,61.52 249.44,60.87 249.84,60.24 250.24,59.65 250.63,59.08 251.03,58.54 251.43,58.04 251.82,57.56 252.22,57.13 252.62,56.74 253.01,56.38 253.41,56.05 253.81,55.75 254.2,55.49 254.6,55.25 255,55.05 255.39,54.87 255.79,54.72 256.19,54.59 256.58,54.47 256.98,54.38 257.38,54.29 257.77,54.23 258.17,54.17 258.57,54.13 258.96,54.09 259.36,54.06 259.76,54.03 260.15,54.01 260.55,54 260.95,53.99 261.34,53.98 261.74,53.97" stroke-dasharray="none" stroke="rgb(31,120,180)" stroke-width="0.75" opacity="1" stroke-opacity="1" fill="none"/>
          </g>
          <g id="Fig:densplot_01.xyplot.lines.group.7.panel.1.1.1">
            <polyline id="Fig:densplot_01.xyplot.lines.group.7.panel.1.1.1.1" points="59,53.97 59.4,53.98 59.79,53.99 60.19,54.01 60.59,54.03 60.98,54.05 61.38,54.09 61.78,54.13 62.18,54.18 62.57,54.25 62.97,54.34 63.37,54.44 63.76,54.57 64.16,54.73 64.56,54.93 64.95,55.17 65.35,55.46 65.75,55.8 66.14,56.2 66.54,56.68 66.94,57.24 67.33,57.9 67.73,58.66 68.13,59.53 68.53,60.52 68.92,61.64 69.32,62.93 69.72,64.38 70.11,65.99 70.51,67.77 70.91,69.73 71.3,71.87 71.7,74.22 72.1,76.78 72.49,79.54 72.89,82.49 73.29,85.63 73.68,88.95 74.08,92.46 74.48,96.16 74.88,100.03 75.27,104.04 75.67,108.19 76.07,112.45 76.46,116.82 76.86,121.27 77.26,125.8 77.65,130.38 78.05,134.98 78.45,139.58 78.84,144.18 79.24,148.75 79.64,153.26 80.03,157.7 80.43,162.06 80.83,166.32 81.23,170.47 81.62,174.5 82.02,178.39 82.42,182.1 82.81,185.65 83.21,189.04 83.61,192.26 84,195.3 84.4,198.16 84.8,200.82 85.19,203.26 85.59,205.52 85.99,207.6 86.38,209.48 86.78,211.19 87.18,212.72 87.58,214.04 87.97,215.18 88.37,216.17 88.77,217 89.16,217.67 89.56,218.21 89.96,218.61 90.35,218.86 90.75,218.99 91.15,219.02 91.54,218.94 91.94,218.77 92.34,218.52 92.73,218.17 93.13,217.75 93.53,217.27 93.93,216.73 94.32,216.14 94.72,215.5 95.12,214.82 95.51,214.09 95.91,213.33 96.31,212.54 96.7,211.73 97.1,210.9 97.5,210.05 97.89,209.18 98.29,208.3 98.69,207.41 99.08,206.51 99.48,205.61 99.88,204.7 100.28,203.79 100.67,202.89 101.07,201.98 101.47,201.08 101.86,200.18 102.26,199.29 102.66,198.4 103.05,197.52 103.45,196.65 103.85,195.79 104.24,194.93 104.64,194.07 105.04,193.23 105.43,192.39 105.83,191.56 106.23,190.74 106.63,189.92 107.02,189.12 107.42,188.32 107.82,187.52 108.21,186.74 108.61,185.96 109.01,185.2 109.4,184.44 109.8,183.7 110.2,182.97 110.59,182.24 110.99,181.54 111.39,180.85 111.78,180.17 112.18,179.51 112.58,178.86 112.98,178.24 113.37,177.63 113.77,177.04 114.17,176.47 114.56,175.92 114.96,175.38 115.36,174.86 115.75,174.36 116.15,173.87 116.55,173.4 116.94,172.94 117.34,172.48 117.74,172.03 118.13,171.59 118.53,171.15 118.93,170.7 119.33,170.25 119.72,169.8 120.12,169.34 120.52,168.87 120.91,168.38 121.31,167.89 121.71,167.37 122.1,166.85 122.5,166.31 122.9,165.75 123.29,165.19 123.69,164.61 124.09,164.03 124.48,163.43 124.88,162.84 125.28,162.24 125.68,161.64 126.07,161.05 126.47,160.46 126.87,159.88 127.26,159.32 127.66,158.77 128.06,158.24 128.45,157.72 128.85,157.22 129.25,156.73 129.64,156.27 130.04,155.83 130.44,155.4 130.83,154.99 131.23,154.59 131.63,154.2 132.03,153.83 132.42,153.47 132.82,153.11 133.22,152.76 133.61,152.42 134.01,152.08 134.41,151.74 134.8,151.41 135.2,151.08 135.6,150.75 135.99,150.42 136.39,150.09 136.79,149.77 137.18,149.45 137.58,149.14 137.98,148.83 138.38,148.53 138.77,148.24 139.17,147.95 139.57,147.67 139.96,147.41 140.36,147.15 140.76,146.9 141.15,146.65 141.55,146.42 141.95,146.2 142.34,145.98 142.74,145.77 143.14,145.57 143.53,145.38 143.93,145.19 144.33,145.01 144.73,144.83 145.12,144.66 145.52,144.5 145.92,144.35 146.31,144.21 146.71,144.07 147.11,143.95 147.5,143.84 147.9,143.74 148.3,143.66 148.69,143.6 149.09,143.55 149.49,143.52 149.88,143.51 150.28,143.52 150.68,143.55 151.08,143.6 151.47,143.66 151.87,143.74 152.27,143.84 152.66,143.95 153.06,144.06 153.46,144.18 153.85,144.31 154.25,144.43 154.65,144.55 155.04,144.66 155.44,144.76 155.84,144.84 156.23,144.91 156.63,144.96 157.03,144.99 157.43,145 157.82,144.98 158.22,144.94 158.62,144.87 159.01,144.78 159.41,144.67 159.81,144.54 160.2,144.39 160.6,144.22 161,144.03 161.39,143.82 161.79,143.61 162.19,143.38 162.58,143.14 162.98,142.9 163.38,142.64 163.78,142.39 164.17,142.13 164.57,141.87 164.97,141.61 165.36,141.34 165.76,141.08 166.16,140.83 166.55,140.57 166.95,140.32 167.35,140.08 167.74,139.84 168.14,139.6 168.54,139.38 168.93,139.16 169.33,138.95 169.73,138.75 170.13,138.56 170.52,138.39 170.92,138.22 171.32,138.07 171.71,137.93 172.11,137.8 172.51,137.68 172.9,137.57 173.3,137.48 173.7,137.39 174.09,137.31 174.49,137.24 174.89,137.17 175.28,137.1 175.68,137.04 176.08,136.97 176.48,136.9 176.87,136.83 177.27,136.75 177.67,136.66 178.06,136.57 178.46,136.46 178.86,136.35 179.25,136.22 179.65,136.09 180.05,135.94 180.44,135.79 180.84,135.63 181.24,135.47 181.63,135.3 182.03,135.12 182.43,134.94 182.83,134.75 183.22,134.56 183.62,134.37 184.02,134.18 184.41,133.99 184.81,133.79 185.21,133.59 185.6,133.39 186,133.18 186.4,132.97 186.79,132.75 187.19,132.52 187.59,132.28 187.98,132.04 188.38,131.78 188.78,131.51 189.18,131.23 189.57,130.94 189.97,130.63 190.37,130.31 190.76,129.98 191.16,129.64 191.56,129.28 191.95,128.91 192.35,128.53 192.75,128.14 193.14,127.75 193.54,127.35 193.94,126.94 194.33,126.53 194.73,126.12 195.13,125.71 195.53,125.3 195.92,124.89 196.32,124.49 196.72,124.09 197.11,123.7 197.51,123.31 197.91,122.92 198.3,122.54 198.7,122.17 199.1,121.8 199.49,121.43 199.89,121.06 200.29,120.69 200.68,120.33 201.08,119.96 201.48,119.59 201.88,119.22 202.27,118.84 202.67,118.46 203.07,118.08 203.46,117.69 203.86,117.3 204.26,116.91 204.65,116.51 205.05,116.12 205.45,115.72 205.84,115.32 206.24,114.92 206.64,114.52 207.03,114.12 207.43,113.72 207.83,113.32 208.23,112.92 208.62,112.53 209.02,112.13 209.42,111.74 209.81,111.34 210.21,110.94 210.61,110.54 211,110.14 211.4,109.73 211.8,109.32 212.19,108.91 212.59,108.49 212.99,108.06 213.38,107.62 213.78,107.17 214.18,106.72 214.58,106.25 214.97,105.78 215.37,105.3 215.77,104.81 216.16,104.32 216.56,103.81 216.96,103.3 217.35,102.79 217.75,102.28 218.15,101.76 218.54,101.24 218.94,100.72 219.34,100.21 219.73,99.69 220.13,99.19 220.53,98.68 220.93,98.18 221.32,97.68 221.72,97.19 222.12,96.7 222.51,96.22 222.91,95.74 223.31,95.25 223.7,94.77 224.1,94.29 224.5,93.81 224.89,93.32 225.29,92.83 225.69,92.34 226.08,91.84 226.48,91.34 226.88,90.84 227.28,90.33 227.67,89.82 228.07,89.3 228.47,88.79 228.86,88.27 229.26,87.75 229.66,87.24 230.05,86.73 230.45,86.23 230.85,85.73 231.24,85.23 231.64,84.75 232.04,84.27 232.43,83.79 232.83,83.33 233.23,82.87 233.63,82.41 234.02,81.97 234.42,81.53 234.82,81.09 235.21,80.66 235.61,80.23 236.01,79.8 236.4,79.37 236.8,78.94 237.2,78.51 237.59,78.08 237.99,77.64 238.39,77.2 238.78,76.75 239.18,76.3 239.58,75.84 239.98,75.37 240.37,74.88 240.77,74.39 241.17,73.89 241.56,73.37 241.96,72.83 242.36,72.28 242.75,71.71 243.15,71.13 243.55,70.53 243.94,69.91 244.34,69.28 244.74,68.62 245.13,67.96 245.53,67.28 245.93,66.59 246.33,65.9 246.72,65.2 247.12,64.5 247.52,63.8 247.91,63.11 248.31,62.43 248.71,61.77 249.1,61.12 249.5,60.49 249.9,59.89 250.29,59.31 250.69,58.77 251.09,58.26 251.48,57.77 251.88,57.33 252.28,56.92 252.68,56.54 253.07,56.2 253.47,55.89 253.87,55.62 254.26,55.37 254.66,55.15 255.06,54.96 255.45,54.8 255.85,54.65 256.25,54.53 256.64,54.43 257.04,54.34 257.44,54.26 257.83,54.2 258.23,54.15 258.63,54.11 259.03,54.07 259.42,54.05 259.82,54.02 260.22,54.01 260.61,53.99 261.01,53.98 261.41,53.97 261.8,53.97" stroke-dasharray="none" stroke="rgb(31,120,180)" stroke-width="0.75" opacity="1" stroke-opacity="1" fill="none"/>
          </g>
          <g id="Fig:densplot_01.xyplot.lines.group.8.panel.1.1.1">
            <polyline id="Fig:densplot_01.xyplot.lines.group.8.panel.1.1.1.1" points="59.19,53.98 59.58,53.98 59.98,54 60.38,54.01 60.77,54.04 61.17,54.06 61.56,54.1 61.96,54.15 62.36,54.2 62.75,54.28 63.15,54.37 63.55,54.48 63.94,54.62 64.34,54.79 64.73,54.99 65.13,55.24 65.53,55.53 65.92,55.88 66.32,56.3 66.71,56.8 67.11,57.37 67.51,58.03 67.9,58.79 68.3,59.66 68.7,60.67 69.09,61.81 69.49,63.09 69.88,64.52 70.28,66.1 70.68,67.85 71.07,69.79 71.47,71.92 71.86,74.23 72.26,76.73 72.66,79.41 73.05,82.28 73.45,85.33 73.85,88.58 74.24,92.02 74.64,95.61 75.03,99.35 75.43,103.23 75.83,107.24 76.22,111.37 76.62,115.61 77.01,119.92 77.41,124.3 77.81,128.72 78.2,133.16 78.6,137.61 79,142.04 79.39,146.45 79.79,150.8 80.18,155.08 80.58,159.29 80.98,163.4 81.37,167.4 81.77,171.26 82.16,174.98 82.56,178.56 82.96,181.99 83.35,185.26 83.75,188.37 84.15,191.29 84.54,194.02 84.94,196.57 85.33,198.95 85.73,201.16 86.13,203.19 86.52,205.05 86.92,206.72 87.31,208.21 87.71,209.55 88.11,210.74 88.5,211.77 88.9,212.67 89.3,213.42 89.69,214.03 90.09,214.51 90.48,214.87 90.88,215.13 91.28,215.29 91.67,215.35 92.07,215.31 92.46,215.18 92.86,214.97 93.26,214.68 93.65,214.33 94.05,213.91 94.44,213.44 94.84,212.9 95.24,212.31 95.63,211.68 96.03,211 96.43,210.28 96.82,209.53 97.22,208.75 97.61,207.93 98.01,207.09 98.41,206.23 98.8,205.35 99.2,204.46 99.59,203.56 99.99,202.65 100.39,201.74 100.78,200.83 101.18,199.92 101.58,199.02 101.97,198.13 102.37,197.25 102.76,196.38 103.16,195.54 103.56,194.71 103.95,193.9 104.35,193.11 104.74,192.34 105.14,191.59 105.54,190.87 105.93,190.17 106.33,189.49 106.73,188.83 107.12,188.19 107.52,187.57 107.91,186.98 108.31,186.4 108.71,185.84 109.1,185.3 109.5,184.77 109.89,184.26 110.29,183.77 110.69,183.29 111.08,182.82 111.48,182.37 111.88,181.94 112.27,181.51 112.67,181.1 113.06,180.69 113.46,180.3 113.86,179.92 114.25,179.54 114.65,179.18 115.04,178.82 115.44,178.46 115.84,178.11 116.23,177.76 116.63,177.41 117.03,177.06 117.42,176.72 117.82,176.37 118.21,176.02 118.61,175.68 119.01,175.33 119.4,174.99 119.8,174.64 120.19,174.3 120.59,173.95 120.99,173.61 121.38,173.27 121.78,172.93 122.18,172.59 122.57,172.25 122.97,171.91 123.36,171.57 123.76,171.23 124.16,170.89 124.55,170.54 124.95,170.19 125.34,169.83 125.74,169.46 126.14,169.08 126.53,168.69 126.93,168.28 127.33,167.86 127.72,167.43 128.12,166.98 128.51,166.52 128.91,166.04 129.31,165.54 129.7,165.04 130.1,164.52 130.49,164 130.89,163.47 131.29,162.93 131.68,162.39 132.08,161.85 132.48,161.32 132.87,160.78 133.27,160.26 133.66,159.74 134.06,159.22 134.46,158.72 134.85,158.23 135.25,157.75 135.64,157.27 136.04,156.8 136.44,156.34 136.83,155.89 137.23,155.45 137.63,155 138.02,154.56 138.42,154.13 138.81,153.7 139.21,153.26 139.61,152.83 140,152.41 140.4,151.98 140.79,151.56 141.19,151.14 141.59,150.72 141.98,150.31 142.38,149.91 142.78,149.51 143.17,149.12 143.57,148.75 143.96,148.38 144.36,148.03 144.76,147.68 145.15,147.36 145.55,147.04 145.94,146.74 146.34,146.46 146.74,146.18 147.13,145.92 147.53,145.68 147.92,145.46 148.32,145.24 148.72,145.04 149.11,144.86 149.51,144.68 149.91,144.52 150.3,144.37 150.7,144.23 151.09,144.1 151.49,143.98 151.89,143.87 152.28,143.76 152.68,143.66 153.07,143.56 153.47,143.47 153.87,143.38 154.26,143.28 154.66,143.19 155.06,143.11 155.45,143.02 155.85,142.93 156.24,142.85 156.64,142.77 157.04,142.69 157.43,142.61 157.83,142.54 158.22,142.48 158.62,142.42 159.02,142.37 159.41,142.33 159.81,142.3 160.21,142.28 160.6,142.27 161,142.27 161.39,142.27 161.79,142.28 162.19,142.3 162.58,142.32 162.98,142.34 163.37,142.35 163.77,142.36 164.17,142.37 164.56,142.37 164.96,142.35 165.36,142.33 165.75,142.29 166.15,142.23 166.54,142.15 166.94,142.06 167.34,141.95 167.73,141.83 168.13,141.69 168.52,141.54 168.92,141.37 169.32,141.18 169.71,140.99 170.11,140.8 170.51,140.59 170.9,140.39 171.3,140.18 171.69,139.97 172.09,139.76 172.49,139.56 172.88,139.37 173.28,139.18 173.67,139 174.07,138.83 174.47,138.66 174.86,138.5 175.26,138.35 175.66,138.2 176.05,138.06 176.45,137.92 176.84,137.78 177.24,137.64 177.64,137.49 178.03,137.34 178.43,137.18 178.82,137.01 179.22,136.83 179.62,136.62 180.01,136.41 180.41,136.17 180.81,135.92 181.2,135.65 181.6,135.36 181.99,135.05 182.39,134.72 182.79,134.38 183.18,134.02 183.58,133.66 183.97,133.28 184.37,132.89 184.77,132.5 185.16,132.1 185.56,131.7 185.96,131.31 186.35,130.91 186.75,130.52 187.14,130.14 187.54,129.76 187.94,129.39 188.33,129.02 188.73,128.67 189.12,128.32 189.52,127.97 189.92,127.63 190.31,127.3 190.71,126.97 191.11,126.64 191.5,126.32 191.9,125.99 192.29,125.67 192.69,125.35 193.09,125.03 193.48,124.71 193.88,124.38 194.27,124.06 194.67,123.74 195.07,123.42 195.46,123.09 195.86,122.77 196.25,122.45 196.65,122.13 197.05,121.81 197.44,121.49 197.84,121.18 198.24,120.86 198.63,120.54 199.03,120.23 199.42,119.91 199.82,119.6 200.22,119.28 200.61,118.96 201.01,118.64 201.4,118.31 201.8,117.98 202.2,117.64 202.59,117.31 202.99,116.96 203.39,116.61 203.78,116.26 204.18,115.9 204.57,115.53 204.97,115.16 205.37,114.79 205.76,114.41 206.16,114.03 206.55,113.65 206.95,113.27 207.35,112.88 207.74,112.5 208.14,112.11 208.54,111.72 208.93,111.33 209.33,110.94 209.72,110.54 210.12,110.15 210.52,109.75 210.91,109.35 211.31,108.94 211.7,108.52 212.1,108.1 212.5,107.68 212.89,107.24 213.29,106.8 213.69,106.34 214.08,105.88 214.48,105.4 214.87,104.92 215.27,104.43 215.67,103.92 216.06,103.4 216.46,102.88 216.85,102.35 217.25,101.81 217.65,101.26 218.04,100.71 218.44,100.15 218.84,99.6 219.23,99.04 219.63,98.48 220.02,97.92 220.42,97.37 220.82,96.82 221.21,96.28 221.61,95.74 222,95.21 222.4,94.68 222.8,94.16 223.19,93.65 223.59,93.14 223.99,92.64 224.38,92.14 224.78,91.65 225.17,91.16 225.57,90.67 225.97,90.18 226.36,89.69 226.76,89.21 227.15,88.72 227.55,88.23 227.95,87.73 228.34,87.24 228.74,86.74 229.14,86.25 229.53,85.75 229.93,85.25 230.32,84.76 230.72,84.26 231.12,83.77 231.51,83.28 231.91,82.8 232.3,82.32 232.7,81.85 233.1,81.38 233.49,80.92 233.89,80.47 234.29,80.02 234.68,79.58 235.08,79.15 235.47,78.72 235.87,78.3 236.27,77.89 236.66,77.47 237.06,77.07 237.45,76.66 237.85,76.26 238.25,75.86 238.64,75.45 239.04,75.04 239.44,74.63 239.83,74.22 240.23,73.79 240.62,73.36 241.02,72.91 241.42,72.46 241.81,71.98 242.21,71.49 242.6,70.99 243,70.46 243.4,69.91 243.79,69.35 244.19,68.76 244.59,68.16 244.98,67.54 245.38,66.9 245.77,66.25 246.17,65.59 246.57,64.92 246.96,64.25 247.36,63.58 247.75,62.91 248.15,62.25 248.55,61.6 248.94,60.97 249.34,60.36 249.73,59.77 250.13,59.2 250.53,58.67 250.92,58.17 251.32,57.7 251.72,57.26 252.11,56.85 252.51,56.48 252.9,56.15 253.3,55.85 253.7,55.58 254.09,55.33 254.49,55.12 254.88,54.93 255.28,54.77 255.68,54.63 256.07,54.51 256.47,54.41 256.87,54.32 257.26,54.25 257.66,54.19 258.05,54.14 258.45,54.1 258.85,54.07 259.24,54.04 259.64,54.02 260.03,54 260.43,53.99 260.83,53.98 261.22,53.97 261.62,53.97" stroke-dasharray="none" stroke="rgb(31,120,180)" stroke-width="0.75" opacity="1" stroke-opacity="1" fill="none"/>
          </g>
          <g id="Fig:densplot_01.xyplot.lines.group.9.panel.1.1.1">
            <polyline id="Fig:densplot_01.xyplot.lines.group.9.panel.1.1.1.1" points="59.44,53.97 59.84,53.98 60.23,53.99 60.63,54 61.02,54.02 61.42,54.04 61.81,54.07 62.21,54.1 62.6,54.15 63,54.21 63.4,54.29 63.79,54.38 64.19,54.49 64.58,54.63 64.98,54.8 65.37,55 65.77,55.25 66.16,55.55 66.56,55.9 66.95,56.31 67.35,56.79 67.74,57.35 68.14,58.01 68.53,58.76 68.93,59.63 69.32,60.6 69.72,61.7 70.12,62.93 70.51,64.33 70.91,65.88 71.3,67.59 71.7,69.47 72.09,71.51 72.49,73.73 72.88,76.13 73.28,78.74 73.67,81.53 74.07,84.5 74.46,87.63 74.86,90.94 75.25,94.4 75.65,98.04 76.04,101.82 76.44,105.73 76.83,109.76 77.23,113.88 77.63,118.09 78.02,122.37 78.42,126.7 78.81,131.07 79.21,135.44 79.6,139.81 80,144.15 80.39,148.46 80.79,152.71 81.18,156.88 81.58,160.95 81.97,164.92 82.37,168.78 82.76,172.51 83.16,176.11 83.55,179.56 83.95,182.84 84.34,185.96 84.74,188.92 85.14,191.71 85.53,194.34 85.93,196.8 86.32,199.07 86.72,201.15 87.11,203.08 87.51,204.84 87.9,206.44 88.3,207.88 88.69,209.18 89.09,210.29 89.48,211.27 89.88,212.11 90.27,212.83 90.67,213.42 91.06,213.91 91.46,214.27 91.86,214.53 92.25,214.69 92.65,214.76 93.04,214.76 93.44,214.67 93.83,214.52 94.23,214.3 94.62,214.01 95.02,213.67 95.41,213.27 95.81,212.83 96.2,212.34 96.6,211.81 96.99,211.23 97.39,210.62 97.78,209.98 98.18,209.3 98.57,208.6 98.97,207.88 99.37,207.14 99.76,206.37 100.16,205.6 100.55,204.82 100.95,204.03 101.34,203.24 101.74,202.45 102.13,201.67 102.53,200.89 102.92,200.12 103.32,199.36 103.71,198.61 104.11,197.87 104.5,197.14 104.9,196.43 105.29,195.73 105.69,195.05 106.08,194.37 106.48,193.71 106.88,193.06 107.27,192.42 107.67,191.79 108.06,191.17 108.46,190.56 108.85,189.97 109.25,189.38 109.64,188.81 110.04,188.25 110.43,187.71 110.83,187.19 111.22,186.68 111.62,186.19 112.01,185.72 112.41,185.26 112.8,184.83 113.2,184.42 113.6,184.03 113.99,183.65 114.39,183.29 114.78,182.95 115.18,182.62 115.57,182.31 115.97,182.01 116.36,181.72 116.76,181.43 117.15,181.15 117.55,180.87 117.94,180.59 118.34,180.32 118.73,180.04 119.13,179.76 119.52,179.47 119.92,179.18 120.31,178.88 120.71,178.58 121.11,178.26 121.5,177.93 121.9,177.6 122.29,177.25 122.69,176.88 123.08,176.5 123.48,176.11 123.87,175.69 124.27,175.25 124.66,174.8 125.06,174.33 125.45,173.83 125.85,173.32 126.24,172.78 126.64,172.21 127.03,171.64 127.43,171.04 127.82,170.42 128.22,169.8 128.62,169.15 129.01,168.5 129.41,167.84 129.8,167.18 130.2,166.51 130.59,165.84 130.99,165.18 131.38,164.52 131.78,163.87 132.17,163.22 132.57,162.58 132.96,161.95 133.36,161.33 133.75,160.73 134.15,160.13 134.54,159.54 134.94,158.96 135.34,158.4 135.73,157.84 136.13,157.29 136.52,156.76 136.92,156.23 137.31,155.72 137.71,155.22 138.1,154.73 138.5,154.25 138.89,153.79 139.29,153.35 139.68,152.92 140.08,152.51 140.47,152.13 140.87,151.76 141.26,151.41 141.66,151.08 142.05,150.77 142.45,150.49 142.85,150.22 143.24,149.97 143.64,149.73 144.03,149.51 144.43,149.31 144.82,149.11 145.22,148.92 145.61,148.74 146.01,148.55 146.4,148.37 146.8,148.19 147.19,148.01 147.59,147.82 147.98,147.63 148.38,147.43 148.77,147.22 149.17,147.01 149.56,146.79 149.96,146.57 150.36,146.34 150.75,146.12 151.15,145.89 151.54,145.67 151.94,145.44 152.33,145.23 152.73,145.03 153.12,144.83 153.52,144.65 153.91,144.49 154.31,144.34 154.7,144.2 155.1,144.08 155.49,143.99 155.89,143.91 156.28,143.85 156.68,143.8 157.08,143.77 157.47,143.75 157.87,143.74 158.26,143.74 158.66,143.75 159.05,143.77 159.45,143.78 159.84,143.8 160.24,143.82 160.63,143.83 161.03,143.85 161.42,143.85 161.82,143.85 162.21,143.84 162.61,143.82 163,143.79 163.4,143.75 163.79,143.69 164.19,143.63 164.59,143.55 164.98,143.46 165.38,143.36 165.77,143.25 166.17,143.12 166.56,142.98 166.96,142.82 167.35,142.65 167.75,142.47 168.14,142.28 168.54,142.07 168.93,141.84 169.33,141.6 169.72,141.35 170.12,141.09 170.51,140.82 170.91,140.54 171.3,140.25 171.7,139.95 172.1,139.65 172.49,139.35 172.89,139.05 173.28,138.74 173.68,138.44 174.07,138.14 174.47,137.85 174.86,137.56 175.26,137.28 175.65,137.01 176.05,136.75 176.44,136.49 176.84,136.25 177.23,136.03 177.63,135.81 178.02,135.61 178.42,135.41 178.82,135.23 179.21,135.06 179.61,134.9 180,134.75 180.4,134.6 180.79,134.47 181.19,134.34 181.58,134.22 181.98,134.11 182.37,134 182.77,133.89 183.16,133.78 183.56,133.67 183.95,133.56 184.35,133.44 184.74,133.32 185.14,133.2 185.53,133.06 185.93,132.92 186.33,132.77 186.72,132.62 187.12,132.45 187.51,132.26 187.91,132.07 188.3,131.87 188.7,131.65 189.09,131.43 189.49,131.19 189.88,130.93 190.28,130.67 190.67,130.39 191.07,130.09 191.46,129.78 191.86,129.46 192.25,129.12 192.65,128.76 193.04,128.39 193.44,128 193.84,127.6 194.23,127.18 194.63,126.75 195.02,126.3 195.42,125.84 195.81,125.37 196.21,124.89 196.6,124.41 197,123.92 197.39,123.42 197.79,122.93 198.18,122.44 198.58,121.95 198.97,121.47 199.37,121 199.76,120.53 200.16,120.07 200.56,119.63 200.95,119.19 201.35,118.76 201.74,118.35 202.14,117.94 202.53,117.53 202.93,117.14 203.32,116.74 203.72,116.35 204.11,115.96 204.51,115.57 204.9,115.17 205.3,114.77 205.69,114.36 206.09,113.95 206.48,113.52 206.88,113.09 207.27,112.65 207.67,112.19 208.07,111.73 208.46,111.25 208.86,110.76 209.25,110.26 209.65,109.75 210.04,109.23 210.44,108.71 210.83,108.17 211.23,107.63 211.62,107.08 212.02,106.53 212.41,105.98 212.81,105.43 213.2,104.87 213.6,104.31 213.99,103.76 214.39,103.2 214.78,102.65 215.18,102.1 215.58,101.55 215.97,101.01 216.37,100.46 216.76,99.92 217.16,99.38 217.55,98.84 217.95,98.3 218.34,97.76 218.74,97.22 219.13,96.68 219.53,96.14 219.92,95.6 220.32,95.06 220.71,94.52 221.11,93.98 221.5,93.44 221.9,92.91 222.3,92.37 222.69,91.85 223.09,91.33 223.48,90.81 223.88,90.3 224.27,89.79 224.67,89.3 225.06,88.81 225.46,88.32 225.85,87.85 226.25,87.38 226.64,86.92 227.04,86.46 227.43,86.01 227.83,85.57 228.22,85.13 228.62,84.69 229.01,84.26 229.41,83.83 229.81,83.41 230.2,82.98 230.6,82.56 230.99,82.14 231.39,81.73 231.78,81.31 232.18,80.9 232.57,80.49 232.97,80.07 233.36,79.66 233.76,79.25 234.15,78.84 234.55,78.43 234.94,78.02 235.34,77.6 235.73,77.19 236.13,76.78 236.52,76.36 236.92,75.94 237.32,75.52 237.71,75.1 238.11,74.68 238.5,74.25 238.9,73.81 239.29,73.38 239.69,72.94 240.08,72.49 240.48,72.03 240.87,71.57 241.27,71.1 241.66,70.62 242.06,70.14 242.45,69.64 242.85,69.13 243.24,68.61 243.64,68.08 244.04,67.54 244.43,66.98 244.83,66.42 245.22,65.85 245.62,65.27 246.01,64.68 246.41,64.09 246.8,63.49 247.2,62.9 247.59,62.31 247.99,61.72 248.38,61.15 248.78,60.58 249.17,60.03 249.57,59.5 249.96,58.99 250.36,58.5 250.75,58.03 251.15,57.6 251.55,57.19 251.94,56.81 252.34,56.46 252.73,56.14 253.13,55.85 253.52,55.58 253.92,55.35 254.31,55.14 254.71,54.96 255.1,54.79 255.5,54.65 255.89,54.53 256.29,54.43 256.68,54.34 257.08,54.27 257.47,54.2 257.87,54.15 258.26,54.11 258.66,54.08 259.06,54.05 259.45,54.03 259.85,54.01 260.24,53.99 260.64,53.98 261.03,53.97 261.43,53.97" stroke-dasharray="none" stroke="rgb(31,120,180)" stroke-width="0.75" opacity="1" stroke-opacity="1" fill="none"/>
          </g>
          <g id="Fig:densplot_01.xyplot.lines.group.10.panel.1.1.1">
            <polyline id="Fig:densplot_01.xyplot.lines.group.10.panel.1.1.1.1" points="59.28,53.98 59.67,53.99 60.07,54 60.47,54.02 60.86,54.05 61.26,54.08 61.65,54.12 62.05,54.17 62.45,54.23 62.84,54.31 63.24,54.41 63.63,54.53 64.03,54.68 64.43,54.87 64.82,55.09 65.22,55.35 65.61,55.66 66.01,56.04 66.41,56.48 66.8,57 67.2,57.6 67.59,58.29 67.99,59.08 68.39,59.98 68.78,61.02 69.18,62.19 69.57,63.5 69.97,64.96 70.37,66.56 70.76,68.33 71.16,70.28 71.56,72.42 71.95,74.74 72.35,77.23 72.74,79.9 73.14,82.75 73.54,85.77 73.93,88.98 74.33,92.37 74.72,95.9 75.12,99.58 75.52,103.39 75.91,107.33 76.31,111.37 76.7,115.53 77.1,119.75 77.5,124.03 77.89,128.36 78.29,132.71 78.68,137.07 79.08,141.41 79.48,145.73 79.87,150 80.27,154.2 80.66,158.33 81.06,162.37 81.46,166.31 81.85,170.1 82.25,173.77 82.64,177.29 83.04,180.66 83.44,183.88 83.83,186.94 84.23,189.82 84.63,192.5 85.02,195.01 85.42,197.34 85.81,199.5 86.21,201.49 86.61,203.31 87,204.94 87.4,206.38 87.79,207.67 88.19,208.81 88.59,209.79 88.98,210.64 89.38,211.34 89.77,211.89 90.17,212.31 90.57,212.62 90.96,212.82 91.36,212.92 91.75,212.92 92.15,212.83 92.55,212.65 92.94,212.4 93.34,212.08 93.73,211.71 94.13,211.29 94.53,210.83 94.92,210.32 95.32,209.78 95.71,209.21 96.11,208.63 96.51,208.03 96.9,207.42 97.3,206.8 97.69,206.18 98.09,205.55 98.49,204.93 98.88,204.3 99.28,203.67 99.68,203.05 100.07,202.42 100.47,201.8 100.86,201.17 101.26,200.55 101.66,199.92 102.05,199.29 102.45,198.65 102.84,198.02 103.24,197.38 103.64,196.73 104.03,196.09 104.43,195.44 104.82,194.79 105.22,194.14 105.62,193.5 106.01,192.85 106.41,192.21 106.8,191.58 107.2,190.95 107.6,190.34 107.99,189.73 108.39,189.13 108.78,188.54 109.18,187.96 109.58,187.4 109.97,186.85 110.37,186.3 110.76,185.78 111.16,185.26 111.56,184.76 111.95,184.26 112.35,183.78 112.74,183.31 113.14,182.85 113.54,182.4 113.93,181.96 114.33,181.53 114.73,181.1 115.12,180.69 115.52,180.28 115.91,179.88 116.31,179.49 116.71,179.11 117.1,178.73 117.5,178.36 117.89,178 118.29,177.64 118.69,177.28 119.08,176.93 119.48,176.58 119.87,176.24 120.27,175.9 120.67,175.56 121.06,175.22 121.46,174.88 121.85,174.54 122.25,174.2 122.65,173.86 123.04,173.51 123.44,173.16 123.83,172.81 124.23,172.45 124.63,172.09 125.02,171.71 125.42,171.33 125.81,170.94 126.21,170.55 126.61,170.14 127,169.72 127.4,169.29 127.8,168.85 128.19,168.4 128.59,167.94 128.98,167.48 129.38,167 129.78,166.52 130.17,166.04 130.57,165.55 130.96,165.06 131.36,164.57 131.76,164.08 132.15,163.6 132.55,163.12 132.94,162.65 133.34,162.19 133.74,161.73 134.13,161.29 134.53,160.87 134.92,160.46 135.32,160.06 135.72,159.68 136.11,159.31 136.51,158.96 136.9,158.62 137.3,158.29 137.7,157.97 138.09,157.66 138.49,157.36 138.88,157.06 139.28,156.77 139.68,156.48 140.07,156.19 140.47,155.89 140.86,155.6 141.26,155.3 141.66,155 142.05,154.69 142.45,154.37 142.85,154.05 143.24,153.72 143.64,153.39 144.03,153.04 144.43,152.7 144.83,152.34 145.22,151.98 145.62,151.61 146.01,151.24 146.41,150.86 146.81,150.48 147.2,150.1 147.6,149.73 147.99,149.35 148.39,148.98 148.79,148.61 149.18,148.25 149.58,147.9 149.97,147.56 150.37,147.23 150.77,146.92 151.16,146.63 151.56,146.34 151.95,146.08 152.35,145.83 152.75,145.6 153.14,145.39 153.54,145.19 153.93,145.01 154.33,144.84 154.73,144.68 155.12,144.53 155.52,144.38 155.91,144.24 156.31,144.11 156.71,143.97 157.1,143.83 157.5,143.69 157.9,143.54 158.29,143.38 158.69,143.21 159.08,143.04 159.48,142.85 159.88,142.66 160.27,142.45 160.67,142.24 161.06,142.01 161.46,141.78 161.86,141.53 162.25,141.29 162.65,141.04 163.04,140.78 163.44,140.52 163.84,140.26 164.23,140.01 164.63,139.75 165.02,139.49 165.42,139.24 165.82,138.99 166.21,138.75 166.61,138.51 167,138.28 167.4,138.05 167.8,137.83 168.19,137.61 168.59,137.4 168.98,137.2 169.38,137 169.78,136.81 170.17,136.62 170.57,136.44 170.97,136.26 171.36,136.09 171.76,135.92 172.15,135.76 172.55,135.6 172.95,135.45 173.34,135.3 173.74,135.16 174.13,135.01 174.53,134.87 174.93,134.74 175.32,134.6 175.72,134.46 176.11,134.33 176.51,134.19 176.91,134.05 177.3,133.91 177.7,133.76 178.09,133.61 178.49,133.46 178.89,133.3 179.28,133.13 179.68,132.95 180.07,132.77 180.47,132.58 180.87,132.38 181.26,132.17 181.66,131.96 182.05,131.74 182.45,131.51 182.85,131.28 183.24,131.04 183.64,130.79 184.03,130.54 184.43,130.28 184.83,130.01 185.22,129.74 185.62,129.45 186.02,129.16 186.41,128.86 186.81,128.55 187.2,128.23 187.6,127.9 188,127.56 188.39,127.21 188.79,126.85 189.18,126.48 189.58,126.1 189.98,125.72 190.37,125.33 190.77,124.94 191.16,124.54 191.56,124.15 191.96,123.75 192.35,123.36 192.75,122.97 193.14,122.58 193.54,122.2 193.94,121.83 194.33,121.46 194.73,121.1 195.12,120.75 195.52,120.4 195.92,120.05 196.31,119.71 196.71,119.37 197.1,119.03 197.5,118.69 197.9,118.36 198.29,118.02 198.69,117.68 199.08,117.34 199.48,117.01 199.88,116.67 200.27,116.33 200.67,115.99 201.07,115.65 201.46,115.32 201.86,114.99 202.25,114.66 202.65,114.34 203.05,114.03 203.44,113.73 203.84,113.44 204.23,113.15 204.63,112.88 205.03,112.61 205.42,112.36 205.82,112.11 206.21,111.87 206.61,111.64 207.01,111.41 207.4,111.19 207.8,110.98 208.19,110.76 208.59,110.54 208.99,110.32 209.38,110.1 209.78,109.87 210.17,109.64 210.57,109.39 210.97,109.13 211.36,108.86 211.76,108.57 212.15,108.27 212.55,107.95 212.95,107.62 213.34,107.26 213.74,106.88 214.14,106.49 214.53,106.07 214.93,105.63 215.32,105.18 215.72,104.71 216.12,104.21 216.51,103.71 216.91,103.18 217.3,102.65 217.7,102.1 218.1,101.54 218.49,100.98 218.89,100.41 219.28,99.83 219.68,99.26 220.08,98.68 220.47,98.1 220.87,97.53 221.26,96.96 221.66,96.39 222.06,95.83 222.45,95.28 222.85,94.73 223.24,94.19 223.64,93.65 224.04,93.13 224.43,92.61 224.83,92.09 225.22,91.59 225.62,91.09 226.02,90.6 226.41,90.12 226.81,89.64 227.2,89.17 227.6,88.71 228,88.25 228.39,87.8 228.79,87.35 229.19,86.91 229.58,86.48 229.98,86.05 230.37,85.63 230.77,85.21 231.17,84.8 231.56,84.39 231.96,83.99 232.35,83.59 232.75,83.19 233.15,82.8 233.54,82.41 233.94,82.02 234.33,81.63 234.73,81.25 235.13,80.86 235.52,80.47 235.92,80.08 236.31,79.69 236.71,79.29 237.11,78.89 237.5,78.49 237.9,78.08 238.29,77.66 238.69,77.24 239.09,76.8 239.48,76.36 239.88,75.91 240.27,75.44 240.67,74.96 241.07,74.47 241.46,73.96 241.86,73.43 242.25,72.89 242.65,72.33 243.05,71.75 243.44,71.15 243.84,70.53 244.24,69.9 244.63,69.25 245.03,68.58 245.42,67.9 245.82,67.21 246.22,66.5 246.61,65.8 247.01,65.09 247.4,64.38 247.8,63.67 248.2,62.97 248.59,62.29 248.99,61.62 249.38,60.97 249.78,60.34 250.18,59.74 250.57,59.17 250.97,58.63 251.36,58.12 251.76,57.65 252.16,57.21 252.55,56.8 252.95,56.43 253.34,56.1 253.74,55.8 254.14,55.53 254.53,55.29 254.93,55.08 255.32,54.9 255.72,54.74 256.12,54.61 256.51,54.49 256.91,54.39 257.31,54.31 257.7,54.24 258.1,54.18 258.49,54.13 258.89,54.09 259.29,54.06 259.68,54.04 260.08,54.02 260.47,54 260.87,53.99 261.27,53.98 261.66,53.97" stroke-dasharray="none" stroke="rgb(31,120,180)" stroke-width="0.75" opacity="1" stroke-opacity="1" fill="none"/>
          </g>
        </g>
        <g id="Fig:densplot_01.panel.1.1.off.vp.2">
          <g id="Fig:densplot_01.border.panel.1.1.1">
            <rect id="Fig:densplot_01.border.panel.1.1.1.1" x="44.8" y="42.19" width="231.2" height="191.81" transform="" stroke="rgb(0,0,0)" stroke-dasharray="none" stroke-width="0.75" opacity="1" fill="none" stroke-opacity="1" fill-opacity="0"/>
          </g>
        </g>
        <g id="Fig:densplot_01..1"/>
      </g>
    </g>
  </g>
</svg>